M48
;DRILL file {KiCad 4.0.4-stable} date 02/07/17 10:52:50
;FORMAT={-:-/ absolute / metric / decimal}
FMAT,2
METRIC,TZ
T1C0.300
T2C1.016
%
G90
G05
M71
T1
X121.5Y-98.5
X122.Y-93.25
X125.75Y-98.5
X126.75Y-93.5
X132.7Y-99.8
X132.7Y-105.
X137.6Y-105.1
X137.7Y-99.9
X140.Y-98.5
X140.8Y-101.5
X141.5Y-93.5
X144.13Y-106.5
X145.25Y-98.5
X146.Y-93.5
X150.Y-98.5
X150.5Y-93.5
T2
X119.Y-89.
X121.54Y-89.
X122.64Y-111.52
X122.64Y-114.06
X124.08Y-89.
X125.18Y-111.52
X125.18Y-114.06
X126.62Y-89.
X127.72Y-111.52
X127.72Y-114.06
X130.26Y-111.52
X130.26Y-114.06
X132.8Y-111.52
X132.8Y-114.06
X135.34Y-111.52
X135.34Y-114.06
X137.88Y-111.52
X137.88Y-114.06
X140.42Y-111.52
X140.42Y-114.06
X142.5Y-89.
X142.96Y-111.52
X142.96Y-114.06
X145.04Y-89.
X145.5Y-111.52
X145.5Y-114.06
X147.58Y-89.
X148.04Y-111.52
X148.04Y-114.06
X150.12Y-89.
X150.58Y-111.52
X150.58Y-114.06
X153.12Y-111.52
X153.12Y-114.06
X155.66Y-111.52
X155.66Y-114.06
X158.2Y-111.52
X158.2Y-114.06
X160.74Y-111.52
X160.74Y-114.06
X163.Y-89.
X163.28Y-111.52
X163.28Y-114.06
X165.54Y-89.
X165.82Y-111.52
X165.82Y-114.06
X168.08Y-89.
X168.36Y-111.52
X168.36Y-114.06
X170.62Y-89.
X170.9Y-111.52
X170.9Y-114.06
X173.16Y-89.
X175.7Y-89.
T0
M30
