G04 #@! TF.FileFunction,Paste,Top*
%FSLAX46Y46*%
G04 Gerber Fmt 4.6, Leading zero omitted, Abs format (unit mm)*
G04 Created by KiCad (PCBNEW 4.0.4-stable) date 02/07/17 10:52:47*
%MOMM*%
%LPD*%
G01*
G04 APERTURE LIST*
%ADD10C,0.100000*%
%ADD11R,1.800000X5.500000*%
%ADD12R,1.000000X1.400000*%
%ADD13R,1.300000X1.500000*%
G04 APERTURE END LIST*
D10*
D11*
X135500000Y-91200000D03*
X135500000Y-99800000D03*
D12*
X127050000Y-94600000D03*
X128950000Y-94600000D03*
X128000000Y-92400000D03*
X122550000Y-94600000D03*
X124450000Y-94600000D03*
X123500000Y-92400000D03*
X118050000Y-94600000D03*
X119950000Y-94600000D03*
X119000000Y-92400000D03*
X151050000Y-94600000D03*
X152950000Y-94600000D03*
X152000000Y-92400000D03*
X146550000Y-94600000D03*
X148450000Y-94600000D03*
X147500000Y-92400000D03*
X142050000Y-94600000D03*
X143950000Y-94600000D03*
X143000000Y-92400000D03*
D13*
X126800000Y-98650000D03*
X126800000Y-101350000D03*
X122300000Y-98650000D03*
X122300000Y-101350000D03*
X117800000Y-98650000D03*
X117800000Y-101350000D03*
X129000000Y-98650000D03*
X129000000Y-101350000D03*
X124500000Y-98650000D03*
X124500000Y-101350000D03*
X120000000Y-98650000D03*
X120000000Y-101350000D03*
X150800000Y-98650000D03*
X150800000Y-101350000D03*
X146300000Y-98650000D03*
X146300000Y-101350000D03*
X141800000Y-98650000D03*
X141800000Y-101350000D03*
X153000000Y-98650000D03*
X153000000Y-101350000D03*
X148500000Y-98650000D03*
X148500000Y-101350000D03*
X144000000Y-98650000D03*
X144000000Y-101350000D03*
M02*
