G04 #@! TF.FileFunction,Legend,Top*
%FSLAX46Y46*%
G04 Gerber Fmt 4.6, Leading zero omitted, Abs format (unit mm)*
G04 Created by KiCad (PCBNEW 4.0.4-stable) date 02/07/17 10:52:47*
%MOMM*%
%LPD*%
G01*
G04 APERTURE LIST*
%ADD10C,0.100000*%
%ADD11C,0.300000*%
%ADD12C,0.150000*%
%ADD13R,1.727200X1.727200*%
%ADD14O,1.727200X1.727200*%
%ADD15R,1.800000X5.500000*%
%ADD16R,1.727200X2.032000*%
%ADD17O,1.727200X2.032000*%
%ADD18R,1.000000X1.400000*%
%ADD19R,1.300000X1.500000*%
G04 APERTURE END LIST*
D10*
D11*
X181878571Y-123814285D02*
X180378571Y-123814285D01*
X180378571Y-122814285D02*
X180378571Y-122528571D01*
X180450000Y-122385713D01*
X180592857Y-122242856D01*
X180878571Y-122171428D01*
X181378571Y-122171428D01*
X181664286Y-122242856D01*
X181807143Y-122385713D01*
X181878571Y-122528571D01*
X181878571Y-122814285D01*
X181807143Y-122957142D01*
X181664286Y-123099999D01*
X181378571Y-123171428D01*
X180878571Y-123171428D01*
X180592857Y-123099999D01*
X180450000Y-122957142D01*
X180378571Y-122814285D01*
X181307143Y-121528570D02*
X181307143Y-120385713D01*
X180450000Y-118885713D02*
X180378571Y-119028570D01*
X180378571Y-119242856D01*
X180450000Y-119457141D01*
X180592857Y-119599999D01*
X180735714Y-119671427D01*
X181021429Y-119742856D01*
X181235714Y-119742856D01*
X181521429Y-119671427D01*
X181664286Y-119599999D01*
X181807143Y-119457141D01*
X181878571Y-119242856D01*
X181878571Y-119099999D01*
X181807143Y-118885713D01*
X181735714Y-118814284D01*
X181235714Y-118814284D01*
X181235714Y-119099999D01*
X181878571Y-118171427D02*
X180378571Y-118171427D01*
X180378571Y-117599999D01*
X180450000Y-117457141D01*
X180521429Y-117385713D01*
X180664286Y-117314284D01*
X180878571Y-117314284D01*
X181021429Y-117385713D01*
X181092857Y-117457141D01*
X181164286Y-117599999D01*
X181164286Y-118171427D01*
X181878571Y-116671427D02*
X180378571Y-116671427D01*
X180378571Y-116314284D01*
X180450000Y-116099999D01*
X180592857Y-115957141D01*
X180735714Y-115885713D01*
X181021429Y-115814284D01*
X181235714Y-115814284D01*
X181521429Y-115885713D01*
X181664286Y-115957141D01*
X181807143Y-116099999D01*
X181878571Y-116314284D01*
X181878571Y-116671427D01*
X181878571Y-114314284D02*
X181164286Y-114814284D01*
X181878571Y-115171427D02*
X180378571Y-115171427D01*
X180378571Y-114599999D01*
X180450000Y-114457141D01*
X180521429Y-114385713D01*
X180664286Y-114314284D01*
X180878571Y-114314284D01*
X181021429Y-114385713D01*
X181092857Y-114457141D01*
X181164286Y-114599999D01*
X181164286Y-115171427D01*
X180378571Y-113885713D02*
X181878571Y-113385713D01*
X180378571Y-112885713D01*
X181878571Y-111599999D02*
X181878571Y-112457142D01*
X181878571Y-112028570D02*
X180378571Y-112028570D01*
X180592857Y-112171427D01*
X180735714Y-112314285D01*
X180807143Y-112457142D01*
X181307143Y-110957142D02*
X181307143Y-109814285D01*
X181450000Y-109171428D02*
X181450000Y-108457142D01*
X181878571Y-109314285D02*
X180378571Y-108814285D01*
X181878571Y-108314285D01*
X181307143Y-107814285D02*
X181307143Y-106671428D01*
X181092857Y-105957142D02*
X181092857Y-105457142D01*
X181878571Y-105242856D02*
X181878571Y-105957142D01*
X180378571Y-105957142D01*
X180378571Y-105242856D01*
X181878571Y-104599999D02*
X180378571Y-104599999D01*
X180378571Y-104028571D01*
X180450000Y-103885713D01*
X180521429Y-103814285D01*
X180664286Y-103742856D01*
X180878571Y-103742856D01*
X181021429Y-103814285D01*
X181092857Y-103885713D01*
X181164286Y-104028571D01*
X181164286Y-104599999D01*
X181878571Y-102314285D02*
X181878571Y-103171428D01*
X181878571Y-102742856D02*
X180378571Y-102742856D01*
X180592857Y-102885713D01*
X180735714Y-103028571D01*
X180807143Y-103171428D01*
D12*
X160994000Y-113044000D02*
X160994000Y-112536000D01*
X160486000Y-113044000D02*
X160486000Y-112536000D01*
X158454000Y-113044000D02*
X158454000Y-112536000D01*
X157946000Y-113044000D02*
X157946000Y-112536000D01*
X163026000Y-113044000D02*
X163026000Y-112536000D01*
X163534000Y-113044000D02*
X163534000Y-112536000D01*
X165566000Y-113044000D02*
X165566000Y-112536000D01*
X166074000Y-113044000D02*
X166074000Y-112536000D01*
X168106000Y-113044000D02*
X168106000Y-112536000D01*
X168614000Y-113044000D02*
X168614000Y-112536000D01*
X170646000Y-113044000D02*
X170646000Y-112536000D01*
X171154000Y-113044000D02*
X171154000Y-112536000D01*
X130514000Y-113044000D02*
X130514000Y-112536000D01*
X130006000Y-113044000D02*
X130006000Y-112536000D01*
X127974000Y-113044000D02*
X127974000Y-112536000D01*
X127466000Y-113044000D02*
X127466000Y-112536000D01*
X132546000Y-113044000D02*
X132546000Y-112536000D01*
X133054000Y-113044000D02*
X133054000Y-112536000D01*
X135086000Y-113044000D02*
X135086000Y-112536000D01*
X135594000Y-113044000D02*
X135594000Y-112536000D01*
X125434000Y-113044000D02*
X125434000Y-112536000D01*
X124926000Y-113044000D02*
X124926000Y-112536000D01*
X122894000Y-113044000D02*
X122894000Y-112536000D01*
X122386000Y-113044000D02*
X122386000Y-112536000D01*
X140674000Y-113044000D02*
X140674000Y-112536000D01*
X140166000Y-113044000D02*
X140166000Y-112536000D01*
X138134000Y-113044000D02*
X138134000Y-112536000D01*
X137626000Y-113044000D02*
X137626000Y-112536000D01*
X142706000Y-113044000D02*
X142706000Y-112536000D01*
X143214000Y-113044000D02*
X143214000Y-112536000D01*
X145246000Y-113044000D02*
X145246000Y-112536000D01*
X145754000Y-113044000D02*
X145754000Y-112536000D01*
X155914000Y-113044000D02*
X155914000Y-112536000D01*
X155406000Y-113044000D02*
X155406000Y-112536000D01*
X153374000Y-113044000D02*
X153374000Y-112536000D01*
X152866000Y-113044000D02*
X152866000Y-112536000D01*
X147786000Y-113044000D02*
X147786000Y-112536000D01*
X148294000Y-113044000D02*
X148294000Y-112536000D01*
X150326000Y-113044000D02*
X150326000Y-112536000D01*
X150834000Y-113044000D02*
X150834000Y-112536000D01*
X125434000Y-115584000D02*
X125434000Y-115076000D01*
X124926000Y-115584000D02*
X124926000Y-115076000D01*
X122894000Y-115584000D02*
X122894000Y-115076000D01*
X122386000Y-115584000D02*
X122386000Y-115076000D01*
X127466000Y-115584000D02*
X127466000Y-115076000D01*
X127974000Y-115584000D02*
X127974000Y-115076000D01*
X130006000Y-115584000D02*
X130006000Y-115076000D01*
X130514000Y-115584000D02*
X130514000Y-115076000D01*
X145754000Y-115584000D02*
X145754000Y-115076000D01*
X145246000Y-115584000D02*
X145246000Y-115076000D01*
X143214000Y-115584000D02*
X143214000Y-115076000D01*
X142706000Y-115584000D02*
X142706000Y-115076000D01*
X147786000Y-115584000D02*
X147786000Y-115076000D01*
X148294000Y-115584000D02*
X148294000Y-115076000D01*
X150326000Y-115584000D02*
X150326000Y-115076000D01*
X150834000Y-115584000D02*
X150834000Y-115076000D01*
X140674000Y-115584000D02*
X140674000Y-115076000D01*
X140166000Y-115584000D02*
X140166000Y-115076000D01*
X138134000Y-115584000D02*
X138134000Y-115076000D01*
X137626000Y-115584000D02*
X137626000Y-115076000D01*
X132546000Y-115584000D02*
X132546000Y-115076000D01*
X133054000Y-115584000D02*
X133054000Y-115076000D01*
X135086000Y-115584000D02*
X135086000Y-115076000D01*
X135594000Y-115584000D02*
X135594000Y-115076000D01*
X155914000Y-115584000D02*
X155914000Y-115076000D01*
X155406000Y-115584000D02*
X155406000Y-115076000D01*
X153374000Y-115584000D02*
X153374000Y-115076000D01*
X152866000Y-115584000D02*
X152866000Y-115076000D01*
X157946000Y-115584000D02*
X157946000Y-115076000D01*
X158454000Y-115584000D02*
X158454000Y-115076000D01*
X160486000Y-115584000D02*
X160486000Y-115076000D01*
X160994000Y-115584000D02*
X160994000Y-115076000D01*
X171154000Y-115584000D02*
X171154000Y-115076000D01*
X170646000Y-115584000D02*
X170646000Y-115076000D01*
X168614000Y-115584000D02*
X168614000Y-115076000D01*
X168106000Y-115584000D02*
X168106000Y-115076000D01*
X163026000Y-115584000D02*
X163026000Y-115076000D01*
X163534000Y-115584000D02*
X163534000Y-115076000D01*
X165566000Y-115584000D02*
X165566000Y-115076000D01*
X166074000Y-115584000D02*
X166074000Y-115076000D01*
X172450000Y-111520000D02*
X172450000Y-110370000D01*
X172450000Y-110370000D02*
X170900000Y-110370000D01*
X171027000Y-118124000D02*
X171027000Y-124093000D01*
X171027000Y-124093000D02*
X170773000Y-124093000D01*
X170773000Y-124093000D02*
X170773000Y-118251000D01*
X170773000Y-118251000D02*
X170900000Y-118251000D01*
X170900000Y-118251000D02*
X170900000Y-124093000D01*
X131530000Y-115584000D02*
X131530000Y-118124000D01*
X131530000Y-115584000D02*
X128990000Y-115584000D01*
X128990000Y-115584000D02*
X128990000Y-118124000D01*
X130514000Y-118124000D02*
X130514000Y-124220000D01*
X130514000Y-124220000D02*
X130006000Y-124220000D01*
X130006000Y-124220000D02*
X130006000Y-118124000D01*
X128990000Y-118124000D02*
X131530000Y-118124000D01*
X126450000Y-118124000D02*
X128990000Y-118124000D01*
X127466000Y-124220000D02*
X127466000Y-118124000D01*
X127974000Y-124220000D02*
X127466000Y-124220000D01*
X127974000Y-118124000D02*
X127974000Y-124220000D01*
X126450000Y-115584000D02*
X126450000Y-118124000D01*
X128990000Y-115584000D02*
X126450000Y-115584000D01*
X128990000Y-115584000D02*
X128990000Y-118124000D01*
X123910000Y-115584000D02*
X123910000Y-118124000D01*
X123910000Y-115584000D02*
X121370000Y-115584000D01*
X122894000Y-118124000D02*
X122894000Y-124220000D01*
X122894000Y-124220000D02*
X122386000Y-124220000D01*
X122386000Y-124220000D02*
X122386000Y-118124000D01*
X121370000Y-118124000D02*
X123910000Y-118124000D01*
X123910000Y-118124000D02*
X126450000Y-118124000D01*
X124926000Y-124220000D02*
X124926000Y-118124000D01*
X125434000Y-124220000D02*
X124926000Y-124220000D01*
X125434000Y-118124000D02*
X125434000Y-124220000D01*
X123910000Y-115584000D02*
X123910000Y-118124000D01*
X126450000Y-115584000D02*
X123910000Y-115584000D01*
X126450000Y-115584000D02*
X126450000Y-118124000D01*
X121370000Y-115584000D02*
X121370000Y-118124000D01*
X151850000Y-115584000D02*
X151850000Y-118124000D01*
X151850000Y-115584000D02*
X149310000Y-115584000D01*
X149310000Y-115584000D02*
X149310000Y-118124000D01*
X150834000Y-118124000D02*
X150834000Y-124220000D01*
X150834000Y-124220000D02*
X150326000Y-124220000D01*
X150326000Y-124220000D02*
X150326000Y-118124000D01*
X149310000Y-118124000D02*
X151850000Y-118124000D01*
X146770000Y-118124000D02*
X149310000Y-118124000D01*
X147786000Y-124220000D02*
X147786000Y-118124000D01*
X148294000Y-124220000D02*
X147786000Y-124220000D01*
X148294000Y-118124000D02*
X148294000Y-124220000D01*
X146770000Y-115584000D02*
X146770000Y-118124000D01*
X149310000Y-115584000D02*
X146770000Y-115584000D01*
X149310000Y-115584000D02*
X149310000Y-118124000D01*
X144230000Y-115584000D02*
X144230000Y-118124000D01*
X144230000Y-115584000D02*
X141690000Y-115584000D01*
X141690000Y-115584000D02*
X141690000Y-118124000D01*
X143214000Y-118124000D02*
X143214000Y-124220000D01*
X143214000Y-124220000D02*
X142706000Y-124220000D01*
X142706000Y-124220000D02*
X142706000Y-118124000D01*
X141690000Y-118124000D02*
X144230000Y-118124000D01*
X144230000Y-118124000D02*
X146770000Y-118124000D01*
X145246000Y-124220000D02*
X145246000Y-118124000D01*
X145754000Y-124220000D02*
X145246000Y-124220000D01*
X145754000Y-118124000D02*
X145754000Y-124220000D01*
X144230000Y-115584000D02*
X144230000Y-118124000D01*
X146770000Y-115584000D02*
X144230000Y-115584000D01*
X146770000Y-115584000D02*
X146770000Y-118124000D01*
X136610000Y-115584000D02*
X136610000Y-118124000D01*
X136610000Y-115584000D02*
X134070000Y-115584000D01*
X134070000Y-115584000D02*
X134070000Y-118124000D01*
X135594000Y-118124000D02*
X135594000Y-124220000D01*
X135594000Y-124220000D02*
X135086000Y-124220000D01*
X135086000Y-124220000D02*
X135086000Y-118124000D01*
X134070000Y-118124000D02*
X136610000Y-118124000D01*
X131530000Y-118124000D02*
X134070000Y-118124000D01*
X132546000Y-124220000D02*
X132546000Y-118124000D01*
X133054000Y-124220000D02*
X132546000Y-124220000D01*
X133054000Y-118124000D02*
X133054000Y-124220000D01*
X131530000Y-115584000D02*
X131530000Y-118124000D01*
X134070000Y-115584000D02*
X131530000Y-115584000D01*
X134070000Y-115584000D02*
X134070000Y-118124000D01*
X139150000Y-115584000D02*
X139150000Y-118124000D01*
X139150000Y-115584000D02*
X136610000Y-115584000D01*
X136610000Y-115584000D02*
X136610000Y-118124000D01*
X138134000Y-118124000D02*
X138134000Y-124220000D01*
X138134000Y-124220000D02*
X137626000Y-124220000D01*
X137626000Y-124220000D02*
X137626000Y-118124000D01*
X136610000Y-118124000D02*
X139150000Y-118124000D01*
X139150000Y-118124000D02*
X141690000Y-118124000D01*
X140166000Y-124220000D02*
X140166000Y-118124000D01*
X140674000Y-124220000D02*
X140166000Y-124220000D01*
X140674000Y-118124000D02*
X140674000Y-124220000D01*
X139150000Y-115584000D02*
X139150000Y-118124000D01*
X141690000Y-115584000D02*
X139150000Y-115584000D01*
X141690000Y-115584000D02*
X141690000Y-118124000D01*
X162010000Y-115584000D02*
X162010000Y-118124000D01*
X162010000Y-115584000D02*
X159470000Y-115584000D01*
X159470000Y-115584000D02*
X159470000Y-118124000D01*
X160994000Y-118124000D02*
X160994000Y-124220000D01*
X160994000Y-124220000D02*
X160486000Y-124220000D01*
X160486000Y-124220000D02*
X160486000Y-118124000D01*
X159470000Y-118124000D02*
X162010000Y-118124000D01*
X156930000Y-118124000D02*
X159470000Y-118124000D01*
X157946000Y-124220000D02*
X157946000Y-118124000D01*
X158454000Y-124220000D02*
X157946000Y-124220000D01*
X158454000Y-118124000D02*
X158454000Y-124220000D01*
X156930000Y-115584000D02*
X156930000Y-118124000D01*
X159470000Y-115584000D02*
X156930000Y-115584000D01*
X159470000Y-115584000D02*
X159470000Y-118124000D01*
X154390000Y-115584000D02*
X154390000Y-118124000D01*
X154390000Y-115584000D02*
X151850000Y-115584000D01*
X151850000Y-115584000D02*
X151850000Y-118124000D01*
X153374000Y-118124000D02*
X153374000Y-124220000D01*
X153374000Y-124220000D02*
X152866000Y-124220000D01*
X152866000Y-124220000D02*
X152866000Y-118124000D01*
X151850000Y-118124000D02*
X154390000Y-118124000D01*
X154390000Y-118124000D02*
X156930000Y-118124000D01*
X155406000Y-124220000D02*
X155406000Y-118124000D01*
X155914000Y-124220000D02*
X155406000Y-124220000D01*
X155914000Y-118124000D02*
X155914000Y-124220000D01*
X154390000Y-115584000D02*
X154390000Y-118124000D01*
X156930000Y-115584000D02*
X154390000Y-115584000D01*
X156930000Y-115584000D02*
X156930000Y-118124000D01*
X167090000Y-115584000D02*
X167090000Y-118124000D01*
X167090000Y-115584000D02*
X164550000Y-115584000D01*
X164550000Y-115584000D02*
X164550000Y-118124000D01*
X166074000Y-118124000D02*
X166074000Y-124220000D01*
X166074000Y-124220000D02*
X165566000Y-124220000D01*
X165566000Y-124220000D02*
X165566000Y-118124000D01*
X164550000Y-118124000D02*
X167090000Y-118124000D01*
X162010000Y-118124000D02*
X164550000Y-118124000D01*
X163026000Y-124220000D02*
X163026000Y-118124000D01*
X163534000Y-124220000D02*
X163026000Y-124220000D01*
X163534000Y-118124000D02*
X163534000Y-124220000D01*
X162010000Y-115584000D02*
X162010000Y-118124000D01*
X164550000Y-115584000D02*
X162010000Y-115584000D01*
X164550000Y-115584000D02*
X164550000Y-118124000D01*
X169630000Y-115584000D02*
X169630000Y-118124000D01*
X169630000Y-115584000D02*
X167090000Y-115584000D01*
X167090000Y-115584000D02*
X167090000Y-118124000D01*
X168614000Y-118124000D02*
X168614000Y-124220000D01*
X168614000Y-124220000D02*
X168106000Y-124220000D01*
X168106000Y-124220000D02*
X168106000Y-118124000D01*
X167090000Y-118124000D02*
X169630000Y-118124000D01*
X169630000Y-118124000D02*
X172170000Y-118124000D01*
X170646000Y-124220000D02*
X170646000Y-118124000D01*
X171154000Y-124220000D02*
X170646000Y-124220000D01*
X171154000Y-118124000D02*
X171154000Y-124220000D01*
X169630000Y-115584000D02*
X169630000Y-118124000D01*
X172170000Y-115584000D02*
X169630000Y-115584000D01*
X172170000Y-115584000D02*
X172170000Y-118124000D01*
X140650000Y-100650000D02*
X130350000Y-100650000D01*
X130350000Y-100650000D02*
X130350000Y-91350000D01*
X130350000Y-91350000D02*
X131350000Y-90350000D01*
X131350000Y-90350000D02*
X139650000Y-90350000D01*
X139650000Y-90350000D02*
X140650000Y-91350000D01*
X140650000Y-91350000D02*
X140650000Y-100650000D01*
X117450000Y-90300000D02*
X119000000Y-90300000D01*
X117450000Y-89000000D02*
X117450000Y-90300000D01*
X118873000Y-84809000D02*
X118873000Y-78967000D01*
X118873000Y-78967000D02*
X119127000Y-78967000D01*
X119127000Y-78967000D02*
X119127000Y-84809000D01*
X119127000Y-84809000D02*
X119000000Y-84809000D01*
X119000000Y-84809000D02*
X119000000Y-78967000D01*
X118746000Y-87476000D02*
X118746000Y-87857000D01*
X119254000Y-87476000D02*
X119254000Y-87857000D01*
X121286000Y-87476000D02*
X121286000Y-87857000D01*
X121794000Y-87476000D02*
X121794000Y-87857000D01*
X123826000Y-87476000D02*
X123826000Y-87857000D01*
X124334000Y-87476000D02*
X124334000Y-87857000D01*
X126874000Y-87476000D02*
X126874000Y-87857000D01*
X126366000Y-87476000D02*
X126366000Y-87857000D01*
X117730000Y-87476000D02*
X117730000Y-84936000D01*
X120270000Y-87476000D02*
X120270000Y-84936000D01*
X120270000Y-87476000D02*
X122810000Y-87476000D01*
X122810000Y-87476000D02*
X122810000Y-84936000D01*
X121286000Y-84936000D02*
X121286000Y-78840000D01*
X121286000Y-78840000D02*
X121794000Y-78840000D01*
X121794000Y-78840000D02*
X121794000Y-84936000D01*
X122810000Y-84936000D02*
X120270000Y-84936000D01*
X120270000Y-84936000D02*
X117730000Y-84936000D01*
X119254000Y-78840000D02*
X119254000Y-84936000D01*
X118746000Y-78840000D02*
X119254000Y-78840000D01*
X118746000Y-84936000D02*
X118746000Y-78840000D01*
X120270000Y-87476000D02*
X120270000Y-84936000D01*
X117730000Y-87476000D02*
X120270000Y-87476000D01*
X125350000Y-87476000D02*
X125350000Y-84936000D01*
X125350000Y-87476000D02*
X127890000Y-87476000D01*
X127890000Y-87476000D02*
X127890000Y-84936000D01*
X126366000Y-84936000D02*
X126366000Y-78840000D01*
X126366000Y-78840000D02*
X126874000Y-78840000D01*
X126874000Y-78840000D02*
X126874000Y-84936000D01*
X127890000Y-84936000D02*
X125350000Y-84936000D01*
X125350000Y-84936000D02*
X122810000Y-84936000D01*
X124334000Y-78840000D02*
X124334000Y-84936000D01*
X123826000Y-78840000D02*
X124334000Y-78840000D01*
X123826000Y-84936000D02*
X123826000Y-78840000D01*
X125350000Y-87476000D02*
X125350000Y-84936000D01*
X122810000Y-87476000D02*
X125350000Y-87476000D01*
X122810000Y-87476000D02*
X122810000Y-84936000D01*
X140950000Y-90300000D02*
X142500000Y-90300000D01*
X140950000Y-89000000D02*
X140950000Y-90300000D01*
X142373000Y-84809000D02*
X142373000Y-78967000D01*
X142373000Y-78967000D02*
X142627000Y-78967000D01*
X142627000Y-78967000D02*
X142627000Y-84809000D01*
X142627000Y-84809000D02*
X142500000Y-84809000D01*
X142500000Y-84809000D02*
X142500000Y-78967000D01*
X142246000Y-87476000D02*
X142246000Y-87857000D01*
X142754000Y-87476000D02*
X142754000Y-87857000D01*
X144786000Y-87476000D02*
X144786000Y-87857000D01*
X145294000Y-87476000D02*
X145294000Y-87857000D01*
X147326000Y-87476000D02*
X147326000Y-87857000D01*
X147834000Y-87476000D02*
X147834000Y-87857000D01*
X150374000Y-87476000D02*
X150374000Y-87857000D01*
X149866000Y-87476000D02*
X149866000Y-87857000D01*
X141230000Y-87476000D02*
X141230000Y-84936000D01*
X143770000Y-87476000D02*
X143770000Y-84936000D01*
X143770000Y-87476000D02*
X146310000Y-87476000D01*
X146310000Y-87476000D02*
X146310000Y-84936000D01*
X144786000Y-84936000D02*
X144786000Y-78840000D01*
X144786000Y-78840000D02*
X145294000Y-78840000D01*
X145294000Y-78840000D02*
X145294000Y-84936000D01*
X146310000Y-84936000D02*
X143770000Y-84936000D01*
X143770000Y-84936000D02*
X141230000Y-84936000D01*
X142754000Y-78840000D02*
X142754000Y-84936000D01*
X142246000Y-78840000D02*
X142754000Y-78840000D01*
X142246000Y-84936000D02*
X142246000Y-78840000D01*
X143770000Y-87476000D02*
X143770000Y-84936000D01*
X141230000Y-87476000D02*
X143770000Y-87476000D01*
X148850000Y-87476000D02*
X148850000Y-84936000D01*
X148850000Y-87476000D02*
X151390000Y-87476000D01*
X151390000Y-87476000D02*
X151390000Y-84936000D01*
X149866000Y-84936000D02*
X149866000Y-78840000D01*
X149866000Y-78840000D02*
X150374000Y-78840000D01*
X150374000Y-78840000D02*
X150374000Y-84936000D01*
X151390000Y-84936000D02*
X148850000Y-84936000D01*
X148850000Y-84936000D02*
X146310000Y-84936000D01*
X147834000Y-78840000D02*
X147834000Y-84936000D01*
X147326000Y-78840000D02*
X147834000Y-78840000D01*
X147326000Y-84936000D02*
X147326000Y-78840000D01*
X148850000Y-87476000D02*
X148850000Y-84936000D01*
X146310000Y-87476000D02*
X148850000Y-87476000D01*
X146310000Y-87476000D02*
X146310000Y-84936000D01*
X161450000Y-90300000D02*
X163000000Y-90300000D01*
X161450000Y-89000000D02*
X161450000Y-90300000D01*
X162873000Y-84809000D02*
X162873000Y-78967000D01*
X162873000Y-78967000D02*
X163127000Y-78967000D01*
X163127000Y-78967000D02*
X163127000Y-84809000D01*
X163127000Y-84809000D02*
X163000000Y-84809000D01*
X163000000Y-84809000D02*
X163000000Y-78967000D01*
X162746000Y-87476000D02*
X162746000Y-87857000D01*
X163254000Y-87476000D02*
X163254000Y-87857000D01*
X165286000Y-87476000D02*
X165286000Y-87857000D01*
X165794000Y-87476000D02*
X165794000Y-87857000D01*
X167826000Y-87476000D02*
X167826000Y-87857000D01*
X168334000Y-87476000D02*
X168334000Y-87857000D01*
X175954000Y-87476000D02*
X175954000Y-87857000D01*
X175446000Y-87476000D02*
X175446000Y-87857000D01*
X173414000Y-87476000D02*
X173414000Y-87857000D01*
X172906000Y-87476000D02*
X172906000Y-87857000D01*
X170874000Y-87476000D02*
X170874000Y-87857000D01*
X170366000Y-87476000D02*
X170366000Y-87857000D01*
X161730000Y-87476000D02*
X161730000Y-84936000D01*
X164270000Y-87476000D02*
X164270000Y-84936000D01*
X164270000Y-87476000D02*
X166810000Y-87476000D01*
X166810000Y-87476000D02*
X166810000Y-84936000D01*
X165286000Y-84936000D02*
X165286000Y-78840000D01*
X165286000Y-78840000D02*
X165794000Y-78840000D01*
X165794000Y-78840000D02*
X165794000Y-84936000D01*
X166810000Y-84936000D02*
X164270000Y-84936000D01*
X164270000Y-84936000D02*
X161730000Y-84936000D01*
X163254000Y-78840000D02*
X163254000Y-84936000D01*
X162746000Y-78840000D02*
X163254000Y-78840000D01*
X162746000Y-84936000D02*
X162746000Y-78840000D01*
X164270000Y-87476000D02*
X164270000Y-84936000D01*
X161730000Y-87476000D02*
X164270000Y-87476000D01*
X171890000Y-87476000D02*
X171890000Y-84936000D01*
X171890000Y-87476000D02*
X174430000Y-87476000D01*
X174430000Y-87476000D02*
X174430000Y-84936000D01*
X172906000Y-84936000D02*
X172906000Y-78840000D01*
X172906000Y-78840000D02*
X173414000Y-78840000D01*
X173414000Y-78840000D02*
X173414000Y-84936000D01*
X174430000Y-84936000D02*
X171890000Y-84936000D01*
X176970000Y-84936000D02*
X174430000Y-84936000D01*
X175954000Y-78840000D02*
X175954000Y-84936000D01*
X175446000Y-78840000D02*
X175954000Y-78840000D01*
X175446000Y-84936000D02*
X175446000Y-78840000D01*
X176970000Y-87476000D02*
X176970000Y-84936000D01*
X174430000Y-87476000D02*
X176970000Y-87476000D01*
X174430000Y-87476000D02*
X174430000Y-84936000D01*
X169350000Y-87476000D02*
X169350000Y-84936000D01*
X169350000Y-87476000D02*
X171890000Y-87476000D01*
X171890000Y-87476000D02*
X171890000Y-84936000D01*
X170366000Y-84936000D02*
X170366000Y-78840000D01*
X170366000Y-78840000D02*
X170874000Y-78840000D01*
X170874000Y-78840000D02*
X170874000Y-84936000D01*
X171890000Y-84936000D02*
X169350000Y-84936000D01*
X169350000Y-84936000D02*
X166810000Y-84936000D01*
X168334000Y-78840000D02*
X168334000Y-84936000D01*
X167826000Y-78840000D02*
X168334000Y-78840000D01*
X167826000Y-84936000D02*
X167826000Y-78840000D01*
X169350000Y-87476000D02*
X169350000Y-84936000D01*
X166810000Y-87476000D02*
X169350000Y-87476000D01*
X166810000Y-87476000D02*
X166810000Y-84936000D01*
X127700000Y-94200000D02*
X128300000Y-94200000D01*
X129600000Y-94200000D02*
X129600000Y-92800000D01*
X129600000Y-92800000D02*
X128600000Y-92800000D01*
X127300000Y-92800000D02*
X126400000Y-92800000D01*
X126400000Y-92800000D02*
X126400000Y-94200000D01*
X123200000Y-94200000D02*
X123800000Y-94200000D01*
X125100000Y-94200000D02*
X125100000Y-92800000D01*
X125100000Y-92800000D02*
X124100000Y-92800000D01*
X122800000Y-92800000D02*
X121900000Y-92800000D01*
X121900000Y-92800000D02*
X121900000Y-94200000D01*
X118700000Y-94200000D02*
X119300000Y-94200000D01*
X120600000Y-94200000D02*
X120600000Y-92800000D01*
X120600000Y-92800000D02*
X119600000Y-92800000D01*
X118300000Y-92800000D02*
X117400000Y-92800000D01*
X117400000Y-92800000D02*
X117400000Y-94200000D01*
X151700000Y-94200000D02*
X152300000Y-94200000D01*
X153600000Y-94200000D02*
X153600000Y-92800000D01*
X153600000Y-92800000D02*
X152600000Y-92800000D01*
X151300000Y-92800000D02*
X150400000Y-92800000D01*
X150400000Y-92800000D02*
X150400000Y-94200000D01*
X147200000Y-94200000D02*
X147800000Y-94200000D01*
X149100000Y-94200000D02*
X149100000Y-92800000D01*
X149100000Y-92800000D02*
X148100000Y-92800000D01*
X146800000Y-92800000D02*
X145900000Y-92800000D01*
X145900000Y-92800000D02*
X145900000Y-94200000D01*
X142700000Y-94200000D02*
X143300000Y-94200000D01*
X144600000Y-94200000D02*
X144600000Y-92800000D01*
X144600000Y-92800000D02*
X143600000Y-92800000D01*
X142300000Y-92800000D02*
X141400000Y-92800000D01*
X141400000Y-92800000D02*
X141400000Y-94200000D01*
X125925000Y-100600000D02*
X125925000Y-99400000D01*
X127675000Y-99400000D02*
X127675000Y-100600000D01*
X121425000Y-100600000D02*
X121425000Y-99400000D01*
X123175000Y-99400000D02*
X123175000Y-100600000D01*
X116925000Y-100600000D02*
X116925000Y-99400000D01*
X118675000Y-99400000D02*
X118675000Y-100600000D01*
X128125000Y-100600000D02*
X128125000Y-99400000D01*
X129875000Y-99400000D02*
X129875000Y-100600000D01*
X123625000Y-100600000D02*
X123625000Y-99400000D01*
X125375000Y-99400000D02*
X125375000Y-100600000D01*
X119125000Y-100600000D02*
X119125000Y-99400000D01*
X120875000Y-99400000D02*
X120875000Y-100600000D01*
X149925000Y-100600000D02*
X149925000Y-99400000D01*
X151675000Y-99400000D02*
X151675000Y-100600000D01*
X145425000Y-100600000D02*
X145425000Y-99400000D01*
X147175000Y-99400000D02*
X147175000Y-100600000D01*
X140925000Y-100600000D02*
X140925000Y-99400000D01*
X142675000Y-99400000D02*
X142675000Y-100600000D01*
X152125000Y-100600000D02*
X152125000Y-99400000D01*
X153875000Y-99400000D02*
X153875000Y-100600000D01*
X147625000Y-100600000D02*
X147625000Y-99400000D01*
X149375000Y-99400000D02*
X149375000Y-100600000D01*
X143125000Y-100600000D02*
X143125000Y-99400000D01*
X144875000Y-99400000D02*
X144875000Y-100600000D01*
X170161905Y-109952381D02*
X170161905Y-108952381D01*
X170542858Y-108952381D01*
X170638096Y-109000000D01*
X170685715Y-109047619D01*
X170733334Y-109142857D01*
X170733334Y-109285714D01*
X170685715Y-109380952D01*
X170638096Y-109428571D01*
X170542858Y-109476190D01*
X170161905Y-109476190D01*
X171685715Y-109952381D02*
X171114286Y-109952381D01*
X171400000Y-109952381D02*
X171400000Y-108952381D01*
X171304762Y-109095238D01*
X171209524Y-109190476D01*
X171114286Y-109238095D01*
X133133334Y-89557143D02*
X133085715Y-89604762D01*
X132942858Y-89652381D01*
X132847620Y-89652381D01*
X132704762Y-89604762D01*
X132609524Y-89509524D01*
X132561905Y-89414286D01*
X132514286Y-89223810D01*
X132514286Y-89080952D01*
X132561905Y-88890476D01*
X132609524Y-88795238D01*
X132704762Y-88700000D01*
X132847620Y-88652381D01*
X132942858Y-88652381D01*
X133085715Y-88700000D01*
X133133334Y-88747619D01*
X134085715Y-89652381D02*
X133514286Y-89652381D01*
X133800000Y-89652381D02*
X133800000Y-88652381D01*
X133704762Y-88795238D01*
X133609524Y-88890476D01*
X133514286Y-88938095D01*
X116066667Y-87852381D02*
X116066667Y-88566667D01*
X116019047Y-88709524D01*
X115923809Y-88804762D01*
X115780952Y-88852381D01*
X115685714Y-88852381D01*
X117066667Y-88852381D02*
X116495238Y-88852381D01*
X116780952Y-88852381D02*
X116780952Y-87852381D01*
X116685714Y-87995238D01*
X116590476Y-88090476D01*
X116495238Y-88138095D01*
X139566667Y-87752381D02*
X139566667Y-88466667D01*
X139519047Y-88609524D01*
X139423809Y-88704762D01*
X139280952Y-88752381D01*
X139185714Y-88752381D01*
X139995238Y-87847619D02*
X140042857Y-87800000D01*
X140138095Y-87752381D01*
X140376191Y-87752381D01*
X140471429Y-87800000D01*
X140519048Y-87847619D01*
X140566667Y-87942857D01*
X140566667Y-88038095D01*
X140519048Y-88180952D01*
X139947619Y-88752381D01*
X140566667Y-88752381D01*
X160166667Y-87852381D02*
X160166667Y-88566667D01*
X160119047Y-88709524D01*
X160023809Y-88804762D01*
X159880952Y-88852381D01*
X159785714Y-88852381D01*
X160547619Y-87852381D02*
X161166667Y-87852381D01*
X160833333Y-88233333D01*
X160976191Y-88233333D01*
X161071429Y-88280952D01*
X161119048Y-88328571D01*
X161166667Y-88423810D01*
X161166667Y-88661905D01*
X161119048Y-88757143D01*
X161071429Y-88804762D01*
X160976191Y-88852381D01*
X160690476Y-88852381D01*
X160595238Y-88804762D01*
X160547619Y-88757143D01*
X127004762Y-96847619D02*
X126909524Y-96800000D01*
X126814286Y-96704762D01*
X126671429Y-96561905D01*
X126576190Y-96514286D01*
X126480952Y-96514286D01*
X126528571Y-96752381D02*
X126433333Y-96704762D01*
X126338095Y-96609524D01*
X126290476Y-96419048D01*
X126290476Y-96085714D01*
X126338095Y-95895238D01*
X126433333Y-95800000D01*
X126528571Y-95752381D01*
X126719048Y-95752381D01*
X126814286Y-95800000D01*
X126909524Y-95895238D01*
X126957143Y-96085714D01*
X126957143Y-96419048D01*
X126909524Y-96609524D01*
X126814286Y-96704762D01*
X126719048Y-96752381D01*
X126528571Y-96752381D01*
X127909524Y-96752381D02*
X127338095Y-96752381D01*
X127623809Y-96752381D02*
X127623809Y-95752381D01*
X127528571Y-95895238D01*
X127433333Y-95990476D01*
X127338095Y-96038095D01*
X122504762Y-96847619D02*
X122409524Y-96800000D01*
X122314286Y-96704762D01*
X122171429Y-96561905D01*
X122076190Y-96514286D01*
X121980952Y-96514286D01*
X122028571Y-96752381D02*
X121933333Y-96704762D01*
X121838095Y-96609524D01*
X121790476Y-96419048D01*
X121790476Y-96085714D01*
X121838095Y-95895238D01*
X121933333Y-95800000D01*
X122028571Y-95752381D01*
X122219048Y-95752381D01*
X122314286Y-95800000D01*
X122409524Y-95895238D01*
X122457143Y-96085714D01*
X122457143Y-96419048D01*
X122409524Y-96609524D01*
X122314286Y-96704762D01*
X122219048Y-96752381D01*
X122028571Y-96752381D01*
X122838095Y-95847619D02*
X122885714Y-95800000D01*
X122980952Y-95752381D01*
X123219048Y-95752381D01*
X123314286Y-95800000D01*
X123361905Y-95847619D01*
X123409524Y-95942857D01*
X123409524Y-96038095D01*
X123361905Y-96180952D01*
X122790476Y-96752381D01*
X123409524Y-96752381D01*
X118004762Y-96847619D02*
X117909524Y-96800000D01*
X117814286Y-96704762D01*
X117671429Y-96561905D01*
X117576190Y-96514286D01*
X117480952Y-96514286D01*
X117528571Y-96752381D02*
X117433333Y-96704762D01*
X117338095Y-96609524D01*
X117290476Y-96419048D01*
X117290476Y-96085714D01*
X117338095Y-95895238D01*
X117433333Y-95800000D01*
X117528571Y-95752381D01*
X117719048Y-95752381D01*
X117814286Y-95800000D01*
X117909524Y-95895238D01*
X117957143Y-96085714D01*
X117957143Y-96419048D01*
X117909524Y-96609524D01*
X117814286Y-96704762D01*
X117719048Y-96752381D01*
X117528571Y-96752381D01*
X118290476Y-95752381D02*
X118909524Y-95752381D01*
X118576190Y-96133333D01*
X118719048Y-96133333D01*
X118814286Y-96180952D01*
X118861905Y-96228571D01*
X118909524Y-96323810D01*
X118909524Y-96561905D01*
X118861905Y-96657143D01*
X118814286Y-96704762D01*
X118719048Y-96752381D01*
X118433333Y-96752381D01*
X118338095Y-96704762D01*
X118290476Y-96657143D01*
X150904762Y-96747619D02*
X150809524Y-96700000D01*
X150714286Y-96604762D01*
X150571429Y-96461905D01*
X150476190Y-96414286D01*
X150380952Y-96414286D01*
X150428571Y-96652381D02*
X150333333Y-96604762D01*
X150238095Y-96509524D01*
X150190476Y-96319048D01*
X150190476Y-95985714D01*
X150238095Y-95795238D01*
X150333333Y-95700000D01*
X150428571Y-95652381D01*
X150619048Y-95652381D01*
X150714286Y-95700000D01*
X150809524Y-95795238D01*
X150857143Y-95985714D01*
X150857143Y-96319048D01*
X150809524Y-96509524D01*
X150714286Y-96604762D01*
X150619048Y-96652381D01*
X150428571Y-96652381D01*
X151714286Y-95985714D02*
X151714286Y-96652381D01*
X151476190Y-95604762D02*
X151238095Y-96319048D01*
X151857143Y-96319048D01*
X146304762Y-96747619D02*
X146209524Y-96700000D01*
X146114286Y-96604762D01*
X145971429Y-96461905D01*
X145876190Y-96414286D01*
X145780952Y-96414286D01*
X145828571Y-96652381D02*
X145733333Y-96604762D01*
X145638095Y-96509524D01*
X145590476Y-96319048D01*
X145590476Y-95985714D01*
X145638095Y-95795238D01*
X145733333Y-95700000D01*
X145828571Y-95652381D01*
X146019048Y-95652381D01*
X146114286Y-95700000D01*
X146209524Y-95795238D01*
X146257143Y-95985714D01*
X146257143Y-96319048D01*
X146209524Y-96509524D01*
X146114286Y-96604762D01*
X146019048Y-96652381D01*
X145828571Y-96652381D01*
X147161905Y-95652381D02*
X146685714Y-95652381D01*
X146638095Y-96128571D01*
X146685714Y-96080952D01*
X146780952Y-96033333D01*
X147019048Y-96033333D01*
X147114286Y-96080952D01*
X147161905Y-96128571D01*
X147209524Y-96223810D01*
X147209524Y-96461905D01*
X147161905Y-96557143D01*
X147114286Y-96604762D01*
X147019048Y-96652381D01*
X146780952Y-96652381D01*
X146685714Y-96604762D01*
X146638095Y-96557143D01*
X141804762Y-96747619D02*
X141709524Y-96700000D01*
X141614286Y-96604762D01*
X141471429Y-96461905D01*
X141376190Y-96414286D01*
X141280952Y-96414286D01*
X141328571Y-96652381D02*
X141233333Y-96604762D01*
X141138095Y-96509524D01*
X141090476Y-96319048D01*
X141090476Y-95985714D01*
X141138095Y-95795238D01*
X141233333Y-95700000D01*
X141328571Y-95652381D01*
X141519048Y-95652381D01*
X141614286Y-95700000D01*
X141709524Y-95795238D01*
X141757143Y-95985714D01*
X141757143Y-96319048D01*
X141709524Y-96509524D01*
X141614286Y-96604762D01*
X141519048Y-96652381D01*
X141328571Y-96652381D01*
X142614286Y-95652381D02*
X142423809Y-95652381D01*
X142328571Y-95700000D01*
X142280952Y-95747619D01*
X142185714Y-95890476D01*
X142138095Y-96080952D01*
X142138095Y-96461905D01*
X142185714Y-96557143D01*
X142233333Y-96604762D01*
X142328571Y-96652381D01*
X142519048Y-96652381D01*
X142614286Y-96604762D01*
X142661905Y-96557143D01*
X142709524Y-96461905D01*
X142709524Y-96223810D01*
X142661905Y-96128571D01*
X142614286Y-96080952D01*
X142519048Y-96033333D01*
X142328571Y-96033333D01*
X142233333Y-96080952D01*
X142185714Y-96128571D01*
X142138095Y-96223810D01*
X127252381Y-103566666D02*
X126776190Y-103900000D01*
X127252381Y-104138095D02*
X126252381Y-104138095D01*
X126252381Y-103757142D01*
X126300000Y-103661904D01*
X126347619Y-103614285D01*
X126442857Y-103566666D01*
X126585714Y-103566666D01*
X126680952Y-103614285D01*
X126728571Y-103661904D01*
X126776190Y-103757142D01*
X126776190Y-104138095D01*
X127252381Y-102614285D02*
X127252381Y-103185714D01*
X127252381Y-102900000D02*
X126252381Y-102900000D01*
X126395238Y-102995238D01*
X126490476Y-103090476D01*
X126538095Y-103185714D01*
X122752381Y-103566666D02*
X122276190Y-103900000D01*
X122752381Y-104138095D02*
X121752381Y-104138095D01*
X121752381Y-103757142D01*
X121800000Y-103661904D01*
X121847619Y-103614285D01*
X121942857Y-103566666D01*
X122085714Y-103566666D01*
X122180952Y-103614285D01*
X122228571Y-103661904D01*
X122276190Y-103757142D01*
X122276190Y-104138095D01*
X121847619Y-103185714D02*
X121800000Y-103138095D01*
X121752381Y-103042857D01*
X121752381Y-102804761D01*
X121800000Y-102709523D01*
X121847619Y-102661904D01*
X121942857Y-102614285D01*
X122038095Y-102614285D01*
X122180952Y-102661904D01*
X122752381Y-103233333D01*
X122752381Y-102614285D01*
X118252381Y-103566666D02*
X117776190Y-103900000D01*
X118252381Y-104138095D02*
X117252381Y-104138095D01*
X117252381Y-103757142D01*
X117300000Y-103661904D01*
X117347619Y-103614285D01*
X117442857Y-103566666D01*
X117585714Y-103566666D01*
X117680952Y-103614285D01*
X117728571Y-103661904D01*
X117776190Y-103757142D01*
X117776190Y-104138095D01*
X117252381Y-103233333D02*
X117252381Y-102614285D01*
X117633333Y-102947619D01*
X117633333Y-102804761D01*
X117680952Y-102709523D01*
X117728571Y-102661904D01*
X117823810Y-102614285D01*
X118061905Y-102614285D01*
X118157143Y-102661904D01*
X118204762Y-102709523D01*
X118252381Y-102804761D01*
X118252381Y-103090476D01*
X118204762Y-103185714D01*
X118157143Y-103233333D01*
X129452381Y-103466666D02*
X128976190Y-103800000D01*
X129452381Y-104038095D02*
X128452381Y-104038095D01*
X128452381Y-103657142D01*
X128500000Y-103561904D01*
X128547619Y-103514285D01*
X128642857Y-103466666D01*
X128785714Y-103466666D01*
X128880952Y-103514285D01*
X128928571Y-103561904D01*
X128976190Y-103657142D01*
X128976190Y-104038095D01*
X128785714Y-102609523D02*
X129452381Y-102609523D01*
X128404762Y-102847619D02*
X129119048Y-103085714D01*
X129119048Y-102466666D01*
X124952381Y-103566666D02*
X124476190Y-103900000D01*
X124952381Y-104138095D02*
X123952381Y-104138095D01*
X123952381Y-103757142D01*
X124000000Y-103661904D01*
X124047619Y-103614285D01*
X124142857Y-103566666D01*
X124285714Y-103566666D01*
X124380952Y-103614285D01*
X124428571Y-103661904D01*
X124476190Y-103757142D01*
X124476190Y-104138095D01*
X123952381Y-102661904D02*
X123952381Y-103138095D01*
X124428571Y-103185714D01*
X124380952Y-103138095D01*
X124333333Y-103042857D01*
X124333333Y-102804761D01*
X124380952Y-102709523D01*
X124428571Y-102661904D01*
X124523810Y-102614285D01*
X124761905Y-102614285D01*
X124857143Y-102661904D01*
X124904762Y-102709523D01*
X124952381Y-102804761D01*
X124952381Y-103042857D01*
X124904762Y-103138095D01*
X124857143Y-103185714D01*
X120452381Y-103566666D02*
X119976190Y-103900000D01*
X120452381Y-104138095D02*
X119452381Y-104138095D01*
X119452381Y-103757142D01*
X119500000Y-103661904D01*
X119547619Y-103614285D01*
X119642857Y-103566666D01*
X119785714Y-103566666D01*
X119880952Y-103614285D01*
X119928571Y-103661904D01*
X119976190Y-103757142D01*
X119976190Y-104138095D01*
X119452381Y-102709523D02*
X119452381Y-102900000D01*
X119500000Y-102995238D01*
X119547619Y-103042857D01*
X119690476Y-103138095D01*
X119880952Y-103185714D01*
X120261905Y-103185714D01*
X120357143Y-103138095D01*
X120404762Y-103090476D01*
X120452381Y-102995238D01*
X120452381Y-102804761D01*
X120404762Y-102709523D01*
X120357143Y-102661904D01*
X120261905Y-102614285D01*
X120023810Y-102614285D01*
X119928571Y-102661904D01*
X119880952Y-102709523D01*
X119833333Y-102804761D01*
X119833333Y-102995238D01*
X119880952Y-103090476D01*
X119928571Y-103138095D01*
X120023810Y-103185714D01*
X151452381Y-104566666D02*
X150976190Y-104900000D01*
X151452381Y-105138095D02*
X150452381Y-105138095D01*
X150452381Y-104757142D01*
X150500000Y-104661904D01*
X150547619Y-104614285D01*
X150642857Y-104566666D01*
X150785714Y-104566666D01*
X150880952Y-104614285D01*
X150928571Y-104661904D01*
X150976190Y-104757142D01*
X150976190Y-105138095D01*
X150452381Y-104233333D02*
X150452381Y-103566666D01*
X151452381Y-103995238D01*
X146752381Y-104566666D02*
X146276190Y-104900000D01*
X146752381Y-105138095D02*
X145752381Y-105138095D01*
X145752381Y-104757142D01*
X145800000Y-104661904D01*
X145847619Y-104614285D01*
X145942857Y-104566666D01*
X146085714Y-104566666D01*
X146180952Y-104614285D01*
X146228571Y-104661904D01*
X146276190Y-104757142D01*
X146276190Y-105138095D01*
X146180952Y-103995238D02*
X146133333Y-104090476D01*
X146085714Y-104138095D01*
X145990476Y-104185714D01*
X145942857Y-104185714D01*
X145847619Y-104138095D01*
X145800000Y-104090476D01*
X145752381Y-103995238D01*
X145752381Y-103804761D01*
X145800000Y-103709523D01*
X145847619Y-103661904D01*
X145942857Y-103614285D01*
X145990476Y-103614285D01*
X146085714Y-103661904D01*
X146133333Y-103709523D01*
X146180952Y-103804761D01*
X146180952Y-103995238D01*
X146228571Y-104090476D01*
X146276190Y-104138095D01*
X146371429Y-104185714D01*
X146561905Y-104185714D01*
X146657143Y-104138095D01*
X146704762Y-104090476D01*
X146752381Y-103995238D01*
X146752381Y-103804761D01*
X146704762Y-103709523D01*
X146657143Y-103661904D01*
X146561905Y-103614285D01*
X146371429Y-103614285D01*
X146276190Y-103661904D01*
X146228571Y-103709523D01*
X146180952Y-103804761D01*
X142252381Y-104566666D02*
X141776190Y-104900000D01*
X142252381Y-105138095D02*
X141252381Y-105138095D01*
X141252381Y-104757142D01*
X141300000Y-104661904D01*
X141347619Y-104614285D01*
X141442857Y-104566666D01*
X141585714Y-104566666D01*
X141680952Y-104614285D01*
X141728571Y-104661904D01*
X141776190Y-104757142D01*
X141776190Y-105138095D01*
X142252381Y-104090476D02*
X142252381Y-103900000D01*
X142204762Y-103804761D01*
X142157143Y-103757142D01*
X142014286Y-103661904D01*
X141823810Y-103614285D01*
X141442857Y-103614285D01*
X141347619Y-103661904D01*
X141300000Y-103709523D01*
X141252381Y-103804761D01*
X141252381Y-103995238D01*
X141300000Y-104090476D01*
X141347619Y-104138095D01*
X141442857Y-104185714D01*
X141680952Y-104185714D01*
X141776190Y-104138095D01*
X141823810Y-104090476D01*
X141871429Y-103995238D01*
X141871429Y-103804761D01*
X141823810Y-103709523D01*
X141776190Y-103661904D01*
X141680952Y-103614285D01*
X153452381Y-104542857D02*
X152976190Y-104876191D01*
X153452381Y-105114286D02*
X152452381Y-105114286D01*
X152452381Y-104733333D01*
X152500000Y-104638095D01*
X152547619Y-104590476D01*
X152642857Y-104542857D01*
X152785714Y-104542857D01*
X152880952Y-104590476D01*
X152928571Y-104638095D01*
X152976190Y-104733333D01*
X152976190Y-105114286D01*
X153452381Y-103590476D02*
X153452381Y-104161905D01*
X153452381Y-103876191D02*
X152452381Y-103876191D01*
X152595238Y-103971429D01*
X152690476Y-104066667D01*
X152738095Y-104161905D01*
X152452381Y-102971429D02*
X152452381Y-102876190D01*
X152500000Y-102780952D01*
X152547619Y-102733333D01*
X152642857Y-102685714D01*
X152833333Y-102638095D01*
X153071429Y-102638095D01*
X153261905Y-102685714D01*
X153357143Y-102733333D01*
X153404762Y-102780952D01*
X153452381Y-102876190D01*
X153452381Y-102971429D01*
X153404762Y-103066667D01*
X153357143Y-103114286D01*
X153261905Y-103161905D01*
X153071429Y-103209524D01*
X152833333Y-103209524D01*
X152642857Y-103161905D01*
X152547619Y-103114286D01*
X152500000Y-103066667D01*
X152452381Y-102971429D01*
X148952381Y-104542857D02*
X148476190Y-104876191D01*
X148952381Y-105114286D02*
X147952381Y-105114286D01*
X147952381Y-104733333D01*
X148000000Y-104638095D01*
X148047619Y-104590476D01*
X148142857Y-104542857D01*
X148285714Y-104542857D01*
X148380952Y-104590476D01*
X148428571Y-104638095D01*
X148476190Y-104733333D01*
X148476190Y-105114286D01*
X148952381Y-103590476D02*
X148952381Y-104161905D01*
X148952381Y-103876191D02*
X147952381Y-103876191D01*
X148095238Y-103971429D01*
X148190476Y-104066667D01*
X148238095Y-104161905D01*
X148952381Y-102638095D02*
X148952381Y-103209524D01*
X148952381Y-102923810D02*
X147952381Y-102923810D01*
X148095238Y-103019048D01*
X148190476Y-103114286D01*
X148238095Y-103209524D01*
X144452381Y-104542857D02*
X143976190Y-104876191D01*
X144452381Y-105114286D02*
X143452381Y-105114286D01*
X143452381Y-104733333D01*
X143500000Y-104638095D01*
X143547619Y-104590476D01*
X143642857Y-104542857D01*
X143785714Y-104542857D01*
X143880952Y-104590476D01*
X143928571Y-104638095D01*
X143976190Y-104733333D01*
X143976190Y-105114286D01*
X144452381Y-103590476D02*
X144452381Y-104161905D01*
X144452381Y-103876191D02*
X143452381Y-103876191D01*
X143595238Y-103971429D01*
X143690476Y-104066667D01*
X143738095Y-104161905D01*
X143547619Y-103209524D02*
X143500000Y-103161905D01*
X143452381Y-103066667D01*
X143452381Y-102828571D01*
X143500000Y-102733333D01*
X143547619Y-102685714D01*
X143642857Y-102638095D01*
X143738095Y-102638095D01*
X143880952Y-102685714D01*
X144452381Y-103257143D01*
X144452381Y-102638095D01*
%LPC*%
D13*
X170900000Y-111520000D03*
D14*
X170900000Y-114060000D03*
X168360000Y-111520000D03*
X168360000Y-114060000D03*
X165820000Y-111520000D03*
X165820000Y-114060000D03*
X163280000Y-111520000D03*
X163280000Y-114060000D03*
X160740000Y-111520000D03*
X160740000Y-114060000D03*
X158200000Y-111520000D03*
X158200000Y-114060000D03*
X155660000Y-111520000D03*
X155660000Y-114060000D03*
X153120000Y-111520000D03*
X153120000Y-114060000D03*
X150580000Y-111520000D03*
X150580000Y-114060000D03*
X148040000Y-111520000D03*
X148040000Y-114060000D03*
X145500000Y-111520000D03*
X145500000Y-114060000D03*
X142960000Y-111520000D03*
X142960000Y-114060000D03*
X140420000Y-111520000D03*
X140420000Y-114060000D03*
X137880000Y-111520000D03*
X137880000Y-114060000D03*
X135340000Y-111520000D03*
X135340000Y-114060000D03*
X132800000Y-111520000D03*
X132800000Y-114060000D03*
X130260000Y-111520000D03*
X130260000Y-114060000D03*
X127720000Y-111520000D03*
X127720000Y-114060000D03*
X125180000Y-111520000D03*
X125180000Y-114060000D03*
X122640000Y-111520000D03*
X122640000Y-114060000D03*
D15*
X135500000Y-91200000D03*
X135500000Y-99800000D03*
D16*
X119000000Y-89000000D03*
D17*
X121540000Y-89000000D03*
X124080000Y-89000000D03*
X126620000Y-89000000D03*
D16*
X142500000Y-89000000D03*
D17*
X145040000Y-89000000D03*
X147580000Y-89000000D03*
X150120000Y-89000000D03*
D16*
X163000000Y-89000000D03*
D17*
X165540000Y-89000000D03*
X168080000Y-89000000D03*
X170620000Y-89000000D03*
X173160000Y-89000000D03*
X175700000Y-89000000D03*
D18*
X127050000Y-94600000D03*
X128950000Y-94600000D03*
X128000000Y-92400000D03*
X122550000Y-94600000D03*
X124450000Y-94600000D03*
X123500000Y-92400000D03*
X118050000Y-94600000D03*
X119950000Y-94600000D03*
X119000000Y-92400000D03*
X151050000Y-94600000D03*
X152950000Y-94600000D03*
X152000000Y-92400000D03*
X146550000Y-94600000D03*
X148450000Y-94600000D03*
X147500000Y-92400000D03*
X142050000Y-94600000D03*
X143950000Y-94600000D03*
X143000000Y-92400000D03*
D19*
X126800000Y-98650000D03*
X126800000Y-101350000D03*
X122300000Y-98650000D03*
X122300000Y-101350000D03*
X117800000Y-98650000D03*
X117800000Y-101350000D03*
X129000000Y-98650000D03*
X129000000Y-101350000D03*
X124500000Y-98650000D03*
X124500000Y-101350000D03*
X120000000Y-98650000D03*
X120000000Y-101350000D03*
X150800000Y-98650000D03*
X150800000Y-101350000D03*
X146300000Y-98650000D03*
X146300000Y-101350000D03*
X141800000Y-98650000D03*
X141800000Y-101350000D03*
X153000000Y-98650000D03*
X153000000Y-101350000D03*
X148500000Y-98650000D03*
X148500000Y-101350000D03*
X144000000Y-98650000D03*
X144000000Y-101350000D03*
M02*
