G04 #@! TF.FileFunction,Copper,L1,Top,Mixed*
%FSLAX46Y46*%
G04 Gerber Fmt 4.6, Leading zero omitted, Abs format (unit mm)*
G04 Created by KiCad (PCBNEW 4.0.4-stable) date 02/07/17 14:32:54*
%MOMM*%
%LPD*%
G01*
G04 APERTURE LIST*
%ADD10C,0.100000*%
%ADD11R,0.700000X1.300000*%
%ADD12R,1.727200X2.032000*%
%ADD13O,1.727200X2.032000*%
%ADD14R,1.060000X0.650000*%
%ADD15R,2.032000X1.727200*%
%ADD16O,2.032000X1.727200*%
%ADD17R,2.032000X2.032000*%
%ADD18O,2.032000X2.032000*%
%ADD19R,1.000000X1.250000*%
%ADD20R,1.250000X1.000000*%
%ADD21O,3.000000X9.000000*%
%ADD22C,0.500000*%
%ADD23C,0.500000*%
%ADD24C,0.250000*%
%ADD25C,2.000000*%
%ADD26C,1.000000*%
%ADD27C,0.150000*%
G04 APERTURE END LIST*
D10*
D11*
X275860000Y-142410000D03*
X277760000Y-142410000D03*
D12*
X255000000Y-147000000D03*
D13*
X257540000Y-147000000D03*
X260080000Y-147000000D03*
X262620000Y-147000000D03*
D14*
X283540000Y-144190000D03*
X283540000Y-143240000D03*
X283540000Y-142290000D03*
X281340000Y-142290000D03*
X281340000Y-144190000D03*
X281340000Y-143240000D03*
D12*
X49750000Y-140750000D03*
D13*
X47210000Y-140750000D03*
X44670000Y-140750000D03*
X42130000Y-140750000D03*
D15*
X286740000Y-141660000D03*
D16*
X286740000Y-144200000D03*
X286740000Y-146740000D03*
D12*
X55000000Y-141000000D03*
D13*
X57540000Y-141000000D03*
X60080000Y-141000000D03*
X62620000Y-141000000D03*
D12*
X255000000Y-141000000D03*
D13*
X257540000Y-141000000D03*
X260080000Y-141000000D03*
X262620000Y-141000000D03*
D12*
X130000000Y-141000000D03*
D13*
X132540000Y-141000000D03*
X135080000Y-141000000D03*
X137620000Y-141000000D03*
D12*
X230000000Y-141000000D03*
D13*
X232540000Y-141000000D03*
X235080000Y-141000000D03*
X237620000Y-141000000D03*
D12*
X105000000Y-141000000D03*
D13*
X107540000Y-141000000D03*
X110080000Y-141000000D03*
X112620000Y-141000000D03*
D12*
X180000000Y-141000000D03*
D13*
X182540000Y-141000000D03*
X185080000Y-141000000D03*
X187620000Y-141000000D03*
D12*
X155000000Y-141000000D03*
D13*
X157540000Y-141000000D03*
X160080000Y-141000000D03*
X162620000Y-141000000D03*
D12*
X205000000Y-141000000D03*
D13*
X207540000Y-141000000D03*
X210080000Y-141000000D03*
X212620000Y-141000000D03*
D12*
X80000000Y-141000000D03*
D13*
X82540000Y-141000000D03*
X85080000Y-141000000D03*
X87620000Y-141000000D03*
D12*
X30000000Y-141000000D03*
D13*
X32540000Y-141000000D03*
X35080000Y-141000000D03*
X37620000Y-141000000D03*
D12*
X30000000Y-147000000D03*
D13*
X32540000Y-147000000D03*
X35080000Y-147000000D03*
X37620000Y-147000000D03*
D12*
X55000000Y-147000000D03*
D13*
X57540000Y-147000000D03*
X60080000Y-147000000D03*
X62620000Y-147000000D03*
D12*
X80000000Y-147000000D03*
D13*
X82540000Y-147000000D03*
X85080000Y-147000000D03*
X87620000Y-147000000D03*
D12*
X105000000Y-147000000D03*
D13*
X107540000Y-147000000D03*
X110080000Y-147000000D03*
X112620000Y-147000000D03*
D12*
X130000000Y-147000000D03*
D13*
X132540000Y-147000000D03*
X135080000Y-147000000D03*
X137620000Y-147000000D03*
D12*
X155000000Y-147000000D03*
D13*
X157540000Y-147000000D03*
X160080000Y-147000000D03*
X162620000Y-147000000D03*
D12*
X180000000Y-147000000D03*
D13*
X182540000Y-147000000D03*
X185080000Y-147000000D03*
X187620000Y-147000000D03*
D12*
X205000000Y-147000000D03*
D13*
X207540000Y-147000000D03*
X210080000Y-147000000D03*
X212620000Y-147000000D03*
D12*
X230000000Y-147000000D03*
D13*
X232540000Y-147000000D03*
X235080000Y-147000000D03*
X237620000Y-147000000D03*
D17*
X273310000Y-145210000D03*
D18*
X273310000Y-142670000D03*
D19*
X281250000Y-146250000D03*
X283250000Y-146250000D03*
D20*
X279510000Y-142210000D03*
X279510000Y-144210000D03*
D19*
X276010000Y-146110000D03*
X278010000Y-146110000D03*
D21*
X270000000Y-144000000D03*
D22*
X284770000Y-142600000D03*
D23*
X283250000Y-146250000D02*
X283250000Y-147230000D01*
X279460000Y-147560000D02*
X278010000Y-146110000D01*
X282920000Y-147560000D02*
X279460000Y-147560000D01*
X283250000Y-147230000D02*
X282920000Y-147560000D01*
X283540000Y-143240000D02*
X284130000Y-143240000D01*
X284130000Y-143240000D02*
X284770000Y-142600000D01*
X286740000Y-146740000D02*
X283740000Y-146740000D01*
X283740000Y-146740000D02*
X283250000Y-146250000D01*
D24*
X283460000Y-145790000D02*
X283460000Y-146030000D01*
D23*
X281340000Y-144190000D02*
X281340000Y-143240000D01*
X281250000Y-145280000D02*
X281250000Y-144280000D01*
X281250000Y-144280000D02*
X281340000Y-144190000D01*
X286740000Y-144200000D02*
X285410000Y-144200000D01*
X281250000Y-145280000D02*
X281250000Y-146250000D01*
X281510000Y-145020000D02*
X281250000Y-145280000D01*
X284590000Y-145020000D02*
X281510000Y-145020000D01*
X285410000Y-144200000D02*
X284590000Y-145020000D01*
X49750000Y-140750000D02*
X49750000Y-143500000D01*
X49750000Y-143500000D02*
X49500000Y-143500000D01*
X130000000Y-141000000D02*
X130000000Y-143500000D01*
X130000000Y-143500000D02*
X130000000Y-142500000D01*
X130000000Y-142500000D02*
X130000000Y-143500000D01*
X105000000Y-141000000D02*
X105000000Y-143500000D01*
X105000000Y-143500000D02*
X105000000Y-143000000D01*
X105000000Y-143000000D02*
X105000000Y-143500000D01*
X80000000Y-141000000D02*
X80000000Y-143500000D01*
X80000000Y-143500000D02*
X80000000Y-142500000D01*
X80000000Y-142500000D02*
X80000000Y-143500000D01*
X55000000Y-141000000D02*
X55000000Y-143500000D01*
X55000000Y-143500000D02*
X55000000Y-143000000D01*
X55000000Y-143000000D02*
X55000000Y-143500000D01*
X155000000Y-141000000D02*
X155000000Y-143500000D01*
X155000000Y-143500000D02*
X155000000Y-142500000D01*
X155000000Y-142500000D02*
X155000000Y-143500000D01*
X180000000Y-141000000D02*
X180000000Y-143500000D01*
X179500000Y-143000000D02*
X179500000Y-143500000D01*
X180000000Y-143500000D02*
X179500000Y-143000000D01*
X205000000Y-141000000D02*
X205000000Y-143500000D01*
X205000000Y-143500000D02*
X205000000Y-143000000D01*
X205000000Y-143000000D02*
X205000000Y-143500000D01*
X230000000Y-141000000D02*
X230000000Y-143500000D01*
X30000000Y-141000000D02*
X30000000Y-142500000D01*
X255000000Y-142500000D02*
X255000000Y-141000000D01*
X254000000Y-143500000D02*
X255000000Y-142500000D01*
D25*
X31000000Y-143500000D02*
X49500000Y-143500000D01*
X49500000Y-143500000D02*
X50000000Y-143500000D01*
X50000000Y-143500000D02*
X55000000Y-143500000D01*
X55000000Y-143500000D02*
X80000000Y-143500000D01*
X80000000Y-143500000D02*
X105000000Y-143500000D01*
X105000000Y-143500000D02*
X130000000Y-143500000D01*
X130000000Y-143500000D02*
X155000000Y-143500000D01*
X155000000Y-143500000D02*
X179500000Y-143500000D01*
X179500000Y-143500000D02*
X205000000Y-143500000D01*
X205000000Y-143500000D02*
X230000000Y-143500000D01*
X230000000Y-143500000D02*
X254000000Y-143500000D01*
D23*
X30000000Y-142500000D02*
X31000000Y-143500000D01*
X47210000Y-140750000D02*
X47210000Y-139000000D01*
X47210000Y-139000000D02*
X47000000Y-139000000D01*
X57540000Y-141000000D02*
X57540000Y-139000000D01*
X57500000Y-139500000D02*
X57500000Y-139000000D01*
X57500000Y-139040000D02*
X57500000Y-139500000D01*
X57540000Y-139000000D02*
X57500000Y-139040000D01*
X82540000Y-141000000D02*
X82540000Y-139000000D01*
X82540000Y-139000000D02*
X83000000Y-139000000D01*
X107540000Y-141000000D02*
X107540000Y-139000000D01*
X107500000Y-139500000D02*
X107500000Y-139000000D01*
X107500000Y-139040000D02*
X107500000Y-139500000D01*
X107540000Y-139000000D02*
X107500000Y-139040000D01*
X132540000Y-141000000D02*
X132540000Y-139000000D01*
X132540000Y-139000000D02*
X133000000Y-139000000D01*
X157540000Y-141000000D02*
X157540000Y-139000000D01*
X157540000Y-139000000D02*
X157500000Y-139000000D01*
X182540000Y-141000000D02*
X182540000Y-139000000D01*
X182500000Y-139500000D02*
X182500000Y-139000000D01*
X182500000Y-139040000D02*
X182500000Y-139500000D01*
X182540000Y-139000000D02*
X182500000Y-139040000D01*
X207540000Y-141000000D02*
X207540000Y-139000000D01*
X207540000Y-139000000D02*
X207500000Y-139000000D01*
X232540000Y-141000000D02*
X232540000Y-139000000D01*
X232540000Y-139000000D02*
X232500000Y-139000000D01*
X32540000Y-141000000D02*
X32540000Y-139460000D01*
X256500000Y-139000000D02*
X257540000Y-140040000D01*
D26*
X33000000Y-139000000D02*
X47000000Y-139000000D01*
X47000000Y-139000000D02*
X57500000Y-139000000D01*
X57500000Y-139000000D02*
X83000000Y-139000000D01*
X83000000Y-139000000D02*
X107500000Y-139000000D01*
X107500000Y-139000000D02*
X133000000Y-139000000D01*
X133000000Y-139000000D02*
X157500000Y-139000000D01*
X157500000Y-139000000D02*
X182500000Y-139000000D01*
X182500000Y-139000000D02*
X207500000Y-139000000D01*
X207500000Y-139000000D02*
X232500000Y-139000000D01*
X232500000Y-139000000D02*
X256500000Y-139000000D01*
D23*
X32540000Y-139460000D02*
X33000000Y-139000000D01*
X257540000Y-140040000D02*
X257540000Y-141000000D01*
D24*
X283540000Y-144190000D02*
X284270000Y-144190000D01*
X284970000Y-143430000D02*
X286740000Y-141660000D01*
X284970000Y-143490000D02*
X284970000Y-143430000D01*
X284270000Y-144190000D02*
X284970000Y-143490000D01*
D27*
X283590000Y-144240000D02*
X283540000Y-144190000D01*
X283540000Y-144400000D02*
X283540000Y-144190000D01*
D24*
X279510000Y-142210000D02*
X277960000Y-142210000D01*
D27*
X277960000Y-142210000D02*
X277760000Y-142410000D01*
D24*
X283540000Y-142290000D02*
X283540000Y-141750000D01*
X280300000Y-141420000D02*
X279510000Y-142210000D01*
X283210000Y-141420000D02*
X280300000Y-141420000D01*
X283540000Y-141750000D02*
X283210000Y-141420000D01*
X281340000Y-142290000D02*
X280680000Y-142290000D01*
X280480000Y-143000000D02*
X279510000Y-143970000D01*
X280480000Y-142490000D02*
X280480000Y-143000000D01*
X280680000Y-142290000D02*
X280480000Y-142490000D01*
X279510000Y-143970000D02*
X279510000Y-144210000D01*
X276010000Y-146110000D02*
X274210000Y-146110000D01*
D27*
X274210000Y-146110000D02*
X273310000Y-145210000D01*
D24*
X275860000Y-142410000D02*
X273570000Y-142410000D01*
D27*
X273570000Y-142410000D02*
X273310000Y-142670000D01*
X273310000Y-142670000D02*
X273310000Y-145210000D01*
X273310000Y-145210000D02*
X273660000Y-145560000D01*
D23*
X60080000Y-147000000D02*
X60080000Y-149000000D01*
X60250000Y-148750000D02*
X60250000Y-149000000D01*
X60250000Y-148830000D02*
X60250000Y-148750000D01*
X60080000Y-149000000D02*
X60250000Y-148830000D01*
X85080000Y-147000000D02*
X85080000Y-149000000D01*
X85080000Y-149000000D02*
X85250000Y-149000000D01*
X110080000Y-147000000D02*
X110080000Y-149000000D01*
X110250000Y-148750000D02*
X110250000Y-149000000D01*
X110250000Y-148830000D02*
X110250000Y-148750000D01*
X110080000Y-149000000D02*
X110250000Y-148830000D01*
X135080000Y-147000000D02*
X135080000Y-149000000D01*
X135080000Y-149000000D02*
X135000000Y-149000000D01*
X160080000Y-147000000D02*
X160080000Y-149000000D01*
X160080000Y-149000000D02*
X160000000Y-149000000D01*
X185080000Y-147000000D02*
X185080000Y-149000000D01*
X185000000Y-148750000D02*
X185000000Y-149000000D01*
X185000000Y-148920000D02*
X185000000Y-148750000D01*
X185080000Y-149000000D02*
X185000000Y-148920000D01*
X210080000Y-147000000D02*
X210080000Y-149000000D01*
X210080000Y-149000000D02*
X210000000Y-149000000D01*
X235080000Y-147000000D02*
X235080000Y-149000000D01*
X235250000Y-148750000D02*
X235250000Y-149000000D01*
X235250000Y-148830000D02*
X235250000Y-148750000D01*
X235080000Y-149000000D02*
X235250000Y-148830000D01*
X35080000Y-147000000D02*
X35080000Y-148330000D01*
X260080000Y-148170000D02*
X260080000Y-147000000D01*
X259250000Y-149000000D02*
X260080000Y-148170000D01*
D26*
X35750000Y-149000000D02*
X60250000Y-149000000D01*
X60250000Y-149000000D02*
X85250000Y-149000000D01*
X85250000Y-149000000D02*
X110250000Y-149000000D01*
X110250000Y-149000000D02*
X135000000Y-149000000D01*
X135000000Y-149000000D02*
X160000000Y-149000000D01*
X160000000Y-149000000D02*
X185000000Y-149000000D01*
X185000000Y-149000000D02*
X210000000Y-149000000D01*
X210000000Y-149000000D02*
X235250000Y-149000000D01*
X235250000Y-149000000D02*
X259250000Y-149000000D01*
D23*
X35080000Y-148330000D02*
X35750000Y-149000000D01*
X62620000Y-147000000D02*
X62620000Y-145250000D01*
X62620000Y-145250000D02*
X63000000Y-145250000D01*
X87620000Y-147000000D02*
X87620000Y-145250000D01*
X87500000Y-145500000D02*
X87500000Y-145250000D01*
X87500000Y-145370000D02*
X87500000Y-145500000D01*
X87620000Y-145250000D02*
X87500000Y-145370000D01*
X112620000Y-147000000D02*
X112620000Y-145250000D01*
X112750000Y-145500000D02*
X112750000Y-145250000D01*
X112750000Y-145380000D02*
X112750000Y-145500000D01*
X112620000Y-145250000D02*
X112750000Y-145380000D01*
X137620000Y-147000000D02*
X137620000Y-145250000D01*
X137750000Y-145500000D02*
X137750000Y-145250000D01*
X137750000Y-145380000D02*
X137750000Y-145500000D01*
X137620000Y-145250000D02*
X137750000Y-145380000D01*
X162620000Y-147000000D02*
X162620000Y-145250000D01*
X162500000Y-145750000D02*
X162500000Y-145250000D01*
X162500000Y-145370000D02*
X162500000Y-145750000D01*
X162620000Y-145250000D02*
X162500000Y-145370000D01*
X187620000Y-147000000D02*
X187620000Y-145250000D01*
X187500000Y-145500000D02*
X187500000Y-145250000D01*
X187500000Y-145370000D02*
X187500000Y-145500000D01*
X187620000Y-145250000D02*
X187500000Y-145370000D01*
X212620000Y-147000000D02*
X212620000Y-145250000D01*
X212250000Y-145500000D02*
X212250000Y-145250000D01*
X212370000Y-145500000D02*
X212250000Y-145500000D01*
X212620000Y-145250000D02*
X212370000Y-145500000D01*
X237620000Y-147000000D02*
X237620000Y-145250000D01*
X237620000Y-145250000D02*
X237500000Y-145250000D01*
X37620000Y-147000000D02*
X37620000Y-145880000D01*
X261750000Y-145250000D02*
X262620000Y-146120000D01*
D26*
X38250000Y-145250000D02*
X63000000Y-145250000D01*
X63000000Y-145250000D02*
X87500000Y-145250000D01*
X87500000Y-145250000D02*
X112750000Y-145250000D01*
X112750000Y-145250000D02*
X137750000Y-145250000D01*
X137750000Y-145250000D02*
X162500000Y-145250000D01*
X162500000Y-145250000D02*
X187500000Y-145250000D01*
X187500000Y-145250000D02*
X212250000Y-145250000D01*
X212250000Y-145250000D02*
X237500000Y-145250000D01*
X237500000Y-145250000D02*
X261750000Y-145250000D01*
D23*
X37620000Y-145880000D02*
X38250000Y-145250000D01*
X262620000Y-146120000D02*
X262620000Y-147000000D01*
M02*
