G04 #@! TF.FileFunction,Legend,Top*
%FSLAX46Y46*%
G04 Gerber Fmt 4.6, Leading zero omitted, Abs format (unit mm)*
G04 Created by KiCad (PCBNEW 4.0.4-stable) date 02/07/17 14:32:54*
%MOMM*%
%LPD*%
G01*
G04 APERTURE LIST*
%ADD10C,0.100000*%
%ADD11C,0.200000*%
%ADD12C,0.300000*%
%ADD13C,0.250000*%
%ADD14C,0.150000*%
%ADD15R,0.700000X1.300000*%
%ADD16R,1.727200X2.032000*%
%ADD17O,1.727200X2.032000*%
%ADD18R,1.060000X0.650000*%
%ADD19C,3.000000*%
%ADD20R,2.032000X1.727200*%
%ADD21O,2.032000X1.727200*%
%ADD22R,2.032000X2.032000*%
%ADD23O,2.032000X2.032000*%
%ADD24R,1.000000X1.250000*%
%ADD25R,1.250000X1.000000*%
%ADD26O,3.000000X9.000000*%
G04 APERTURE END LIST*
D10*
D11*
X253714286Y-143542857D02*
X254114286Y-144742857D01*
X254514286Y-143542857D01*
X254914285Y-144742857D02*
X254914285Y-143542857D01*
X255485714Y-144742857D02*
X255485714Y-143542857D01*
X256171429Y-144742857D01*
X256171429Y-143542857D01*
X258014286Y-143600000D02*
X257900000Y-143542857D01*
X257728571Y-143542857D01*
X257557143Y-143600000D01*
X257442857Y-143714286D01*
X257385714Y-143828571D01*
X257328571Y-144057143D01*
X257328571Y-144228571D01*
X257385714Y-144457143D01*
X257442857Y-144571429D01*
X257557143Y-144685714D01*
X257728571Y-144742857D01*
X257842857Y-144742857D01*
X258014286Y-144685714D01*
X258071429Y-144628571D01*
X258071429Y-144228571D01*
X257842857Y-144228571D01*
X260671429Y-144742857D02*
X260271429Y-144171429D01*
X259985714Y-144742857D02*
X259985714Y-143542857D01*
X260442857Y-143542857D01*
X260557143Y-143600000D01*
X260614286Y-143657143D01*
X260671429Y-143771429D01*
X260671429Y-143942857D01*
X260614286Y-144057143D01*
X260557143Y-144114286D01*
X260442857Y-144171429D01*
X259985714Y-144171429D01*
X262985714Y-144114286D02*
X263157143Y-144171429D01*
X263214286Y-144228571D01*
X263271429Y-144342857D01*
X263271429Y-144514286D01*
X263214286Y-144628571D01*
X263157143Y-144685714D01*
X263042857Y-144742857D01*
X262585714Y-144742857D01*
X262585714Y-143542857D01*
X262985714Y-143542857D01*
X263100000Y-143600000D01*
X263157143Y-143657143D01*
X263214286Y-143771429D01*
X263214286Y-143885714D01*
X263157143Y-144000000D01*
X263100000Y-144057143D01*
X262985714Y-144114286D01*
X262585714Y-144114286D01*
X237785714Y-144014286D02*
X237957143Y-144071429D01*
X238014286Y-144128571D01*
X238071429Y-144242857D01*
X238071429Y-144414286D01*
X238014286Y-144528571D01*
X237957143Y-144585714D01*
X237842857Y-144642857D01*
X237385714Y-144642857D01*
X237385714Y-143442857D01*
X237785714Y-143442857D01*
X237900000Y-143500000D01*
X237957143Y-143557143D01*
X238014286Y-143671429D01*
X238014286Y-143785714D01*
X237957143Y-143900000D01*
X237900000Y-143957143D01*
X237785714Y-144014286D01*
X237385714Y-144014286D01*
X235471429Y-144642857D02*
X235071429Y-144071429D01*
X234785714Y-144642857D02*
X234785714Y-143442857D01*
X235242857Y-143442857D01*
X235357143Y-143500000D01*
X235414286Y-143557143D01*
X235471429Y-143671429D01*
X235471429Y-143842857D01*
X235414286Y-143957143D01*
X235357143Y-144014286D01*
X235242857Y-144071429D01*
X234785714Y-144071429D01*
X232814286Y-143500000D02*
X232700000Y-143442857D01*
X232528571Y-143442857D01*
X232357143Y-143500000D01*
X232242857Y-143614286D01*
X232185714Y-143728571D01*
X232128571Y-143957143D01*
X232128571Y-144128571D01*
X232185714Y-144357143D01*
X232242857Y-144471429D01*
X232357143Y-144585714D01*
X232528571Y-144642857D01*
X232642857Y-144642857D01*
X232814286Y-144585714D01*
X232871429Y-144528571D01*
X232871429Y-144128571D01*
X232642857Y-144128571D01*
X228514286Y-143442857D02*
X228914286Y-144642857D01*
X229314286Y-143442857D01*
X229714285Y-144642857D02*
X229714285Y-143442857D01*
X230285714Y-144642857D02*
X230285714Y-143442857D01*
X230971429Y-144642857D01*
X230971429Y-143442857D01*
X203614286Y-143442857D02*
X204014286Y-144642857D01*
X204414286Y-143442857D01*
X204814285Y-144642857D02*
X204814285Y-143442857D01*
X205385714Y-144642857D02*
X205385714Y-143442857D01*
X206071429Y-144642857D01*
X206071429Y-143442857D01*
X207914286Y-143500000D02*
X207800000Y-143442857D01*
X207628571Y-143442857D01*
X207457143Y-143500000D01*
X207342857Y-143614286D01*
X207285714Y-143728571D01*
X207228571Y-143957143D01*
X207228571Y-144128571D01*
X207285714Y-144357143D01*
X207342857Y-144471429D01*
X207457143Y-144585714D01*
X207628571Y-144642857D01*
X207742857Y-144642857D01*
X207914286Y-144585714D01*
X207971429Y-144528571D01*
X207971429Y-144128571D01*
X207742857Y-144128571D01*
X210571429Y-144642857D02*
X210171429Y-144071429D01*
X209885714Y-144642857D02*
X209885714Y-143442857D01*
X210342857Y-143442857D01*
X210457143Y-143500000D01*
X210514286Y-143557143D01*
X210571429Y-143671429D01*
X210571429Y-143842857D01*
X210514286Y-143957143D01*
X210457143Y-144014286D01*
X210342857Y-144071429D01*
X209885714Y-144071429D01*
X212885714Y-144014286D02*
X213057143Y-144071429D01*
X213114286Y-144128571D01*
X213171429Y-144242857D01*
X213171429Y-144414286D01*
X213114286Y-144528571D01*
X213057143Y-144585714D01*
X212942857Y-144642857D01*
X212485714Y-144642857D01*
X212485714Y-143442857D01*
X212885714Y-143442857D01*
X213000000Y-143500000D01*
X213057143Y-143557143D01*
X213114286Y-143671429D01*
X213114286Y-143785714D01*
X213057143Y-143900000D01*
X213000000Y-143957143D01*
X212885714Y-144014286D01*
X212485714Y-144014286D01*
X187985714Y-144014286D02*
X188157143Y-144071429D01*
X188214286Y-144128571D01*
X188271429Y-144242857D01*
X188271429Y-144414286D01*
X188214286Y-144528571D01*
X188157143Y-144585714D01*
X188042857Y-144642857D01*
X187585714Y-144642857D01*
X187585714Y-143442857D01*
X187985714Y-143442857D01*
X188100000Y-143500000D01*
X188157143Y-143557143D01*
X188214286Y-143671429D01*
X188214286Y-143785714D01*
X188157143Y-143900000D01*
X188100000Y-143957143D01*
X187985714Y-144014286D01*
X187585714Y-144014286D01*
X185671429Y-144642857D02*
X185271429Y-144071429D01*
X184985714Y-144642857D02*
X184985714Y-143442857D01*
X185442857Y-143442857D01*
X185557143Y-143500000D01*
X185614286Y-143557143D01*
X185671429Y-143671429D01*
X185671429Y-143842857D01*
X185614286Y-143957143D01*
X185557143Y-144014286D01*
X185442857Y-144071429D01*
X184985714Y-144071429D01*
X183014286Y-143500000D02*
X182900000Y-143442857D01*
X182728571Y-143442857D01*
X182557143Y-143500000D01*
X182442857Y-143614286D01*
X182385714Y-143728571D01*
X182328571Y-143957143D01*
X182328571Y-144128571D01*
X182385714Y-144357143D01*
X182442857Y-144471429D01*
X182557143Y-144585714D01*
X182728571Y-144642857D01*
X182842857Y-144642857D01*
X183014286Y-144585714D01*
X183071429Y-144528571D01*
X183071429Y-144128571D01*
X182842857Y-144128571D01*
X178714286Y-143442857D02*
X179114286Y-144642857D01*
X179514286Y-143442857D01*
X179914285Y-144642857D02*
X179914285Y-143442857D01*
X180485714Y-144642857D02*
X180485714Y-143442857D01*
X181171429Y-144642857D01*
X181171429Y-143442857D01*
X153614286Y-143442857D02*
X154014286Y-144642857D01*
X154414286Y-143442857D01*
X154814285Y-144642857D02*
X154814285Y-143442857D01*
X155385714Y-144642857D02*
X155385714Y-143442857D01*
X156071429Y-144642857D01*
X156071429Y-143442857D01*
X157914286Y-143500000D02*
X157800000Y-143442857D01*
X157628571Y-143442857D01*
X157457143Y-143500000D01*
X157342857Y-143614286D01*
X157285714Y-143728571D01*
X157228571Y-143957143D01*
X157228571Y-144128571D01*
X157285714Y-144357143D01*
X157342857Y-144471429D01*
X157457143Y-144585714D01*
X157628571Y-144642857D01*
X157742857Y-144642857D01*
X157914286Y-144585714D01*
X157971429Y-144528571D01*
X157971429Y-144128571D01*
X157742857Y-144128571D01*
X160571429Y-144642857D02*
X160171429Y-144071429D01*
X159885714Y-144642857D02*
X159885714Y-143442857D01*
X160342857Y-143442857D01*
X160457143Y-143500000D01*
X160514286Y-143557143D01*
X160571429Y-143671429D01*
X160571429Y-143842857D01*
X160514286Y-143957143D01*
X160457143Y-144014286D01*
X160342857Y-144071429D01*
X159885714Y-144071429D01*
X162885714Y-144014286D02*
X163057143Y-144071429D01*
X163114286Y-144128571D01*
X163171429Y-144242857D01*
X163171429Y-144414286D01*
X163114286Y-144528571D01*
X163057143Y-144585714D01*
X162942857Y-144642857D01*
X162485714Y-144642857D01*
X162485714Y-143442857D01*
X162885714Y-143442857D01*
X163000000Y-143500000D01*
X163057143Y-143557143D01*
X163114286Y-143671429D01*
X163114286Y-143785714D01*
X163057143Y-143900000D01*
X163000000Y-143957143D01*
X162885714Y-144014286D01*
X162485714Y-144014286D01*
X137885714Y-143914286D02*
X138057143Y-143971429D01*
X138114286Y-144028571D01*
X138171429Y-144142857D01*
X138171429Y-144314286D01*
X138114286Y-144428571D01*
X138057143Y-144485714D01*
X137942857Y-144542857D01*
X137485714Y-144542857D01*
X137485714Y-143342857D01*
X137885714Y-143342857D01*
X138000000Y-143400000D01*
X138057143Y-143457143D01*
X138114286Y-143571429D01*
X138114286Y-143685714D01*
X138057143Y-143800000D01*
X138000000Y-143857143D01*
X137885714Y-143914286D01*
X137485714Y-143914286D01*
X135571429Y-144542857D02*
X135171429Y-143971429D01*
X134885714Y-144542857D02*
X134885714Y-143342857D01*
X135342857Y-143342857D01*
X135457143Y-143400000D01*
X135514286Y-143457143D01*
X135571429Y-143571429D01*
X135571429Y-143742857D01*
X135514286Y-143857143D01*
X135457143Y-143914286D01*
X135342857Y-143971429D01*
X134885714Y-143971429D01*
X132914286Y-143400000D02*
X132800000Y-143342857D01*
X132628571Y-143342857D01*
X132457143Y-143400000D01*
X132342857Y-143514286D01*
X132285714Y-143628571D01*
X132228571Y-143857143D01*
X132228571Y-144028571D01*
X132285714Y-144257143D01*
X132342857Y-144371429D01*
X132457143Y-144485714D01*
X132628571Y-144542857D01*
X132742857Y-144542857D01*
X132914286Y-144485714D01*
X132971429Y-144428571D01*
X132971429Y-144028571D01*
X132742857Y-144028571D01*
X128614286Y-143342857D02*
X129014286Y-144542857D01*
X129414286Y-143342857D01*
X129814285Y-144542857D02*
X129814285Y-143342857D01*
X130385714Y-144542857D02*
X130385714Y-143342857D01*
X131071429Y-144542857D01*
X131071429Y-143342857D01*
X103614286Y-143442857D02*
X104014286Y-144642857D01*
X104414286Y-143442857D01*
X104814285Y-144642857D02*
X104814285Y-143442857D01*
X105385714Y-144642857D02*
X105385714Y-143442857D01*
X106071429Y-144642857D01*
X106071429Y-143442857D01*
X107914286Y-143500000D02*
X107800000Y-143442857D01*
X107628571Y-143442857D01*
X107457143Y-143500000D01*
X107342857Y-143614286D01*
X107285714Y-143728571D01*
X107228571Y-143957143D01*
X107228571Y-144128571D01*
X107285714Y-144357143D01*
X107342857Y-144471429D01*
X107457143Y-144585714D01*
X107628571Y-144642857D01*
X107742857Y-144642857D01*
X107914286Y-144585714D01*
X107971429Y-144528571D01*
X107971429Y-144128571D01*
X107742857Y-144128571D01*
X110571429Y-144642857D02*
X110171429Y-144071429D01*
X109885714Y-144642857D02*
X109885714Y-143442857D01*
X110342857Y-143442857D01*
X110457143Y-143500000D01*
X110514286Y-143557143D01*
X110571429Y-143671429D01*
X110571429Y-143842857D01*
X110514286Y-143957143D01*
X110457143Y-144014286D01*
X110342857Y-144071429D01*
X109885714Y-144071429D01*
X112885714Y-144014286D02*
X113057143Y-144071429D01*
X113114286Y-144128571D01*
X113171429Y-144242857D01*
X113171429Y-144414286D01*
X113114286Y-144528571D01*
X113057143Y-144585714D01*
X112942857Y-144642857D01*
X112485714Y-144642857D01*
X112485714Y-143442857D01*
X112885714Y-143442857D01*
X113000000Y-143500000D01*
X113057143Y-143557143D01*
X113114286Y-143671429D01*
X113114286Y-143785714D01*
X113057143Y-143900000D01*
X113000000Y-143957143D01*
X112885714Y-144014286D01*
X112485714Y-144014286D01*
X87985714Y-143914286D02*
X88157143Y-143971429D01*
X88214286Y-144028571D01*
X88271429Y-144142857D01*
X88271429Y-144314286D01*
X88214286Y-144428571D01*
X88157143Y-144485714D01*
X88042857Y-144542857D01*
X87585714Y-144542857D01*
X87585714Y-143342857D01*
X87985714Y-143342857D01*
X88100000Y-143400000D01*
X88157143Y-143457143D01*
X88214286Y-143571429D01*
X88214286Y-143685714D01*
X88157143Y-143800000D01*
X88100000Y-143857143D01*
X87985714Y-143914286D01*
X87585714Y-143914286D01*
X85671429Y-144542857D02*
X85271429Y-143971429D01*
X84985714Y-144542857D02*
X84985714Y-143342857D01*
X85442857Y-143342857D01*
X85557143Y-143400000D01*
X85614286Y-143457143D01*
X85671429Y-143571429D01*
X85671429Y-143742857D01*
X85614286Y-143857143D01*
X85557143Y-143914286D01*
X85442857Y-143971429D01*
X84985714Y-143971429D01*
X83014286Y-143400000D02*
X82900000Y-143342857D01*
X82728571Y-143342857D01*
X82557143Y-143400000D01*
X82442857Y-143514286D01*
X82385714Y-143628571D01*
X82328571Y-143857143D01*
X82328571Y-144028571D01*
X82385714Y-144257143D01*
X82442857Y-144371429D01*
X82557143Y-144485714D01*
X82728571Y-144542857D01*
X82842857Y-144542857D01*
X83014286Y-144485714D01*
X83071429Y-144428571D01*
X83071429Y-144028571D01*
X82842857Y-144028571D01*
X78714286Y-143342857D02*
X79114286Y-144542857D01*
X79514286Y-143342857D01*
X79914285Y-144542857D02*
X79914285Y-143342857D01*
X80485714Y-144542857D02*
X80485714Y-143342857D01*
X81171429Y-144542857D01*
X81171429Y-143342857D01*
X53614286Y-143342857D02*
X54014286Y-144542857D01*
X54414286Y-143342857D01*
X54814285Y-144542857D02*
X54814285Y-143342857D01*
X55385714Y-144542857D02*
X55385714Y-143342857D01*
X56071429Y-144542857D01*
X56071429Y-143342857D01*
X57914286Y-143400000D02*
X57800000Y-143342857D01*
X57628571Y-143342857D01*
X57457143Y-143400000D01*
X57342857Y-143514286D01*
X57285714Y-143628571D01*
X57228571Y-143857143D01*
X57228571Y-144028571D01*
X57285714Y-144257143D01*
X57342857Y-144371429D01*
X57457143Y-144485714D01*
X57628571Y-144542857D01*
X57742857Y-144542857D01*
X57914286Y-144485714D01*
X57971429Y-144428571D01*
X57971429Y-144028571D01*
X57742857Y-144028571D01*
X60571429Y-144542857D02*
X60171429Y-143971429D01*
X59885714Y-144542857D02*
X59885714Y-143342857D01*
X60342857Y-143342857D01*
X60457143Y-143400000D01*
X60514286Y-143457143D01*
X60571429Y-143571429D01*
X60571429Y-143742857D01*
X60514286Y-143857143D01*
X60457143Y-143914286D01*
X60342857Y-143971429D01*
X59885714Y-143971429D01*
X62885714Y-143914286D02*
X63057143Y-143971429D01*
X63114286Y-144028571D01*
X63171429Y-144142857D01*
X63171429Y-144314286D01*
X63114286Y-144428571D01*
X63057143Y-144485714D01*
X62942857Y-144542857D01*
X62485714Y-144542857D01*
X62485714Y-143342857D01*
X62885714Y-143342857D01*
X63000000Y-143400000D01*
X63057143Y-143457143D01*
X63114286Y-143571429D01*
X63114286Y-143685714D01*
X63057143Y-143800000D01*
X63000000Y-143857143D01*
X62885714Y-143914286D01*
X62485714Y-143914286D01*
X37785714Y-144014286D02*
X37957143Y-144071429D01*
X38014286Y-144128571D01*
X38071429Y-144242857D01*
X38071429Y-144414286D01*
X38014286Y-144528571D01*
X37957143Y-144585714D01*
X37842857Y-144642857D01*
X37385714Y-144642857D01*
X37385714Y-143442857D01*
X37785714Y-143442857D01*
X37900000Y-143500000D01*
X37957143Y-143557143D01*
X38014286Y-143671429D01*
X38014286Y-143785714D01*
X37957143Y-143900000D01*
X37900000Y-143957143D01*
X37785714Y-144014286D01*
X37385714Y-144014286D01*
X35471429Y-144642857D02*
X35071429Y-144071429D01*
X34785714Y-144642857D02*
X34785714Y-143442857D01*
X35242857Y-143442857D01*
X35357143Y-143500000D01*
X35414286Y-143557143D01*
X35471429Y-143671429D01*
X35471429Y-143842857D01*
X35414286Y-143957143D01*
X35357143Y-144014286D01*
X35242857Y-144071429D01*
X34785714Y-144071429D01*
X32814286Y-143500000D02*
X32700000Y-143442857D01*
X32528571Y-143442857D01*
X32357143Y-143500000D01*
X32242857Y-143614286D01*
X32185714Y-143728571D01*
X32128571Y-143957143D01*
X32128571Y-144128571D01*
X32185714Y-144357143D01*
X32242857Y-144471429D01*
X32357143Y-144585714D01*
X32528571Y-144642857D01*
X32642857Y-144642857D01*
X32814286Y-144585714D01*
X32871429Y-144528571D01*
X32871429Y-144128571D01*
X32642857Y-144128571D01*
X28514286Y-143442857D02*
X28914286Y-144642857D01*
X29314286Y-143442857D01*
X29714285Y-144642857D02*
X29714285Y-143442857D01*
X30285714Y-144642857D02*
X30285714Y-143442857D01*
X30971429Y-144642857D01*
X30971429Y-143442857D01*
D10*
X284750000Y-145000000D02*
X284250000Y-145000000D01*
X284750000Y-143750000D02*
X284750000Y-145000000D01*
X284500000Y-144750000D02*
X283500000Y-144750000D01*
X284500000Y-143750000D02*
X284500000Y-144750000D01*
X282550000Y-144630000D02*
X282260000Y-144630000D01*
D12*
X291495715Y-142208571D02*
X292424286Y-142208571D01*
X291924286Y-142780000D01*
X292138572Y-142780000D01*
X292281429Y-142851429D01*
X292352858Y-142922857D01*
X292424286Y-143065714D01*
X292424286Y-143422857D01*
X292352858Y-143565714D01*
X292281429Y-143637143D01*
X292138572Y-143708571D01*
X291710000Y-143708571D01*
X291567143Y-143637143D01*
X291495715Y-143565714D01*
X293067143Y-143565714D02*
X293138571Y-143637143D01*
X293067143Y-143708571D01*
X292995714Y-143637143D01*
X293067143Y-143565714D01*
X293067143Y-143708571D01*
X293638572Y-142208571D02*
X294567143Y-142208571D01*
X294067143Y-142780000D01*
X294281429Y-142780000D01*
X294424286Y-142851429D01*
X294495715Y-142922857D01*
X294567143Y-143065714D01*
X294567143Y-143422857D01*
X294495715Y-143565714D01*
X294424286Y-143637143D01*
X294281429Y-143708571D01*
X293852857Y-143708571D01*
X293710000Y-143637143D01*
X293638572Y-143565714D01*
X294995714Y-142208571D02*
X295495714Y-143708571D01*
X295995714Y-142208571D01*
D13*
X247600002Y-148500000D02*
X247485716Y-148442857D01*
X247314287Y-148442857D01*
X247142859Y-148500000D01*
X247028573Y-148614286D01*
X246971430Y-148728571D01*
X246914287Y-148957143D01*
X246914287Y-149128571D01*
X246971430Y-149357143D01*
X247028573Y-149471429D01*
X247142859Y-149585714D01*
X247314287Y-149642857D01*
X247428573Y-149642857D01*
X247600002Y-149585714D01*
X247657145Y-149528571D01*
X247657145Y-149128571D01*
X247428573Y-149128571D01*
X248171430Y-149642857D02*
X248171430Y-148442857D01*
X248628573Y-148442857D01*
X248742859Y-148500000D01*
X248800002Y-148557143D01*
X248857145Y-148671429D01*
X248857145Y-148842857D01*
X248800002Y-148957143D01*
X248742859Y-149014286D01*
X248628573Y-149071429D01*
X248171430Y-149071429D01*
X249371430Y-149185714D02*
X250285716Y-149185714D01*
X251428573Y-149642857D02*
X250857144Y-149642857D01*
X250857144Y-148442857D01*
X251828573Y-149014286D02*
X252228573Y-149014286D01*
X252400002Y-149642857D02*
X251828573Y-149642857D01*
X251828573Y-148442857D01*
X252400002Y-148442857D01*
X252914287Y-149642857D02*
X252914287Y-148442857D01*
X253200002Y-148442857D01*
X253371430Y-148500000D01*
X253485716Y-148614286D01*
X253542859Y-148728571D01*
X253600002Y-148957143D01*
X253600002Y-149128571D01*
X253542859Y-149357143D01*
X253485716Y-149471429D01*
X253371430Y-149585714D01*
X253200002Y-149642857D01*
X252914287Y-149642857D01*
X254514287Y-149014286D02*
X254114287Y-149014286D01*
X254114287Y-149642857D02*
X254114287Y-148442857D01*
X254685716Y-148442857D01*
X255828573Y-149642857D02*
X255428573Y-149071429D01*
X255142858Y-149642857D02*
X255142858Y-148442857D01*
X255600001Y-148442857D01*
X255714287Y-148500000D01*
X255771430Y-148557143D01*
X255828573Y-148671429D01*
X255828573Y-148842857D01*
X255771430Y-148957143D01*
X255714287Y-149014286D01*
X255600001Y-149071429D01*
X255142858Y-149071429D01*
X256285715Y-149300000D02*
X256857144Y-149300000D01*
X256171430Y-149642857D02*
X256571430Y-148442857D01*
X256971430Y-149642857D01*
X257371429Y-149642857D02*
X257371429Y-148442857D01*
X257771429Y-149300000D01*
X258171429Y-148442857D01*
X258171429Y-149642857D01*
X258742858Y-149014286D02*
X259142858Y-149014286D01*
X259314287Y-149642857D02*
X258742858Y-149642857D01*
X258742858Y-148442857D01*
X259314287Y-148442857D01*
X260457144Y-149642857D02*
X259771429Y-149642857D01*
X260114287Y-149642857D02*
X260114287Y-148442857D01*
X260000001Y-148614286D01*
X259885715Y-148728571D01*
X259771429Y-148785714D01*
X260971429Y-149185714D02*
X261885715Y-149185714D01*
X262400000Y-149300000D02*
X262971429Y-149300000D01*
X262285715Y-149642857D02*
X262685715Y-148442857D01*
X263085715Y-149642857D01*
X263485714Y-149185714D02*
X264400000Y-149185714D01*
X264971428Y-149014286D02*
X265371428Y-149014286D01*
X265542857Y-149642857D02*
X264971428Y-149642857D01*
X264971428Y-148442857D01*
X265542857Y-148442857D01*
X266057142Y-149642857D02*
X266057142Y-148442857D01*
X266514285Y-148442857D01*
X266628571Y-148500000D01*
X266685714Y-148557143D01*
X266742857Y-148671429D01*
X266742857Y-148842857D01*
X266685714Y-148957143D01*
X266628571Y-149014286D01*
X266514285Y-149071429D01*
X266057142Y-149071429D01*
X267885714Y-149642857D02*
X267199999Y-149642857D01*
X267542857Y-149642857D02*
X267542857Y-148442857D01*
X267428571Y-148614286D01*
X267314285Y-148728571D01*
X267199999Y-148785714D01*
D12*
X292257143Y-144790000D02*
X292114286Y-144718571D01*
X291900000Y-144718571D01*
X291685715Y-144790000D01*
X291542857Y-144932857D01*
X291471429Y-145075714D01*
X291400000Y-145361429D01*
X291400000Y-145575714D01*
X291471429Y-145861429D01*
X291542857Y-146004286D01*
X291685715Y-146147143D01*
X291900000Y-146218571D01*
X292042857Y-146218571D01*
X292257143Y-146147143D01*
X292328572Y-146075714D01*
X292328572Y-145575714D01*
X292042857Y-145575714D01*
X292971429Y-146218571D02*
X292971429Y-144718571D01*
X293828572Y-146218571D01*
X293828572Y-144718571D01*
X294542858Y-146218571D02*
X294542858Y-144718571D01*
X294900001Y-144718571D01*
X295114286Y-144790000D01*
X295257144Y-144932857D01*
X295328572Y-145075714D01*
X295400001Y-145361429D01*
X295400001Y-145575714D01*
X295328572Y-145861429D01*
X295257144Y-146004286D01*
X295114286Y-146147143D01*
X294900001Y-146218571D01*
X294542858Y-146218571D01*
X291860000Y-139458571D02*
X292145714Y-139458571D01*
X292288572Y-139530000D01*
X292431429Y-139672857D01*
X292502857Y-139958571D01*
X292502857Y-140458571D01*
X292431429Y-140744286D01*
X292288572Y-140887143D01*
X292145714Y-140958571D01*
X291860000Y-140958571D01*
X291717143Y-140887143D01*
X291574286Y-140744286D01*
X291502857Y-140458571D01*
X291502857Y-139958571D01*
X291574286Y-139672857D01*
X291717143Y-139530000D01*
X291860000Y-139458571D01*
X293145715Y-139458571D02*
X293145715Y-140672857D01*
X293217143Y-140815714D01*
X293288572Y-140887143D01*
X293431429Y-140958571D01*
X293717143Y-140958571D01*
X293860001Y-140887143D01*
X293931429Y-140815714D01*
X294002858Y-140672857D01*
X294002858Y-139458571D01*
X294502858Y-139458571D02*
X295360001Y-139458571D01*
X294931430Y-140958571D02*
X294931430Y-139458571D01*
X272392857Y-139785714D02*
X272321428Y-139857143D01*
X272107142Y-139928571D01*
X271964285Y-139928571D01*
X271750000Y-139857143D01*
X271607142Y-139714286D01*
X271535714Y-139571429D01*
X271464285Y-139285714D01*
X271464285Y-139071429D01*
X271535714Y-138785714D01*
X271607142Y-138642857D01*
X271750000Y-138500000D01*
X271964285Y-138428571D01*
X272107142Y-138428571D01*
X272321428Y-138500000D01*
X272392857Y-138571429D01*
X272964285Y-139857143D02*
X273178571Y-139928571D01*
X273535714Y-139928571D01*
X273678571Y-139857143D01*
X273750000Y-139785714D01*
X273821428Y-139642857D01*
X273821428Y-139500000D01*
X273750000Y-139357143D01*
X273678571Y-139285714D01*
X273535714Y-139214286D01*
X273250000Y-139142857D01*
X273107142Y-139071429D01*
X273035714Y-139000000D01*
X272964285Y-138857143D01*
X272964285Y-138714286D01*
X273035714Y-138571429D01*
X273107142Y-138500000D01*
X273250000Y-138428571D01*
X273607142Y-138428571D01*
X273821428Y-138500000D01*
X274464285Y-139142857D02*
X274964285Y-139142857D01*
X275178571Y-139928571D02*
X274464285Y-139928571D01*
X274464285Y-138428571D01*
X275178571Y-138428571D01*
X275821428Y-139928571D02*
X275821428Y-138428571D01*
X276678571Y-139928571D01*
X276678571Y-138428571D01*
X277321428Y-139857143D02*
X277535714Y-139928571D01*
X277892857Y-139928571D01*
X278035714Y-139857143D01*
X278107143Y-139785714D01*
X278178571Y-139642857D01*
X278178571Y-139500000D01*
X278107143Y-139357143D01*
X278035714Y-139285714D01*
X277892857Y-139214286D01*
X277607143Y-139142857D01*
X277464285Y-139071429D01*
X277392857Y-139000000D01*
X277321428Y-138857143D01*
X277321428Y-138714286D01*
X277392857Y-138571429D01*
X277464285Y-138500000D01*
X277607143Y-138428571D01*
X277964285Y-138428571D01*
X278178571Y-138500000D01*
X278821428Y-139142857D02*
X279321428Y-139142857D01*
X279535714Y-139928571D02*
X278821428Y-139928571D01*
X278821428Y-138428571D01*
X279535714Y-138428571D01*
X279821428Y-140071429D02*
X280964285Y-140071429D01*
X282035714Y-139928571D02*
X281321428Y-139928571D01*
X281321428Y-138428571D01*
X282821428Y-138428571D02*
X283107142Y-138428571D01*
X283250000Y-138500000D01*
X283392857Y-138642857D01*
X283464285Y-138928571D01*
X283464285Y-139428571D01*
X283392857Y-139714286D01*
X283250000Y-139857143D01*
X283107142Y-139928571D01*
X282821428Y-139928571D01*
X282678571Y-139857143D01*
X282535714Y-139714286D01*
X282464285Y-139428571D01*
X282464285Y-138928571D01*
X282535714Y-138642857D01*
X282678571Y-138500000D01*
X282821428Y-138428571D01*
X284392857Y-138428571D02*
X284678571Y-138428571D01*
X284821429Y-138500000D01*
X284964286Y-138642857D01*
X285035714Y-138928571D01*
X285035714Y-139428571D01*
X284964286Y-139714286D01*
X284821429Y-139857143D01*
X284678571Y-139928571D01*
X284392857Y-139928571D01*
X284250000Y-139857143D01*
X284107143Y-139714286D01*
X284035714Y-139428571D01*
X284035714Y-138928571D01*
X284107143Y-138642857D01*
X284250000Y-138500000D01*
X284392857Y-138428571D01*
X285678572Y-139928571D02*
X285678572Y-138428571D01*
X286250000Y-138428571D01*
X286392858Y-138500000D01*
X286464286Y-138571429D01*
X286535715Y-138714286D01*
X286535715Y-138928571D01*
X286464286Y-139071429D01*
X286392858Y-139142857D01*
X286250000Y-139214286D01*
X285678572Y-139214286D01*
X40642857Y-148535714D02*
X40714286Y-148321428D01*
X40785714Y-148250000D01*
X40928571Y-148178571D01*
X41142857Y-148178571D01*
X41285714Y-148250000D01*
X41357143Y-148321428D01*
X41428571Y-148464286D01*
X41428571Y-149035714D01*
X39928571Y-149035714D01*
X39928571Y-148535714D01*
X40000000Y-148392857D01*
X40071429Y-148321428D01*
X40214286Y-148250000D01*
X40357143Y-148250000D01*
X40500000Y-148321428D01*
X40571429Y-148392857D01*
X40642857Y-148535714D01*
X40642857Y-149035714D01*
X41428571Y-146821428D02*
X41428571Y-147535714D01*
X39928571Y-147535714D01*
X39928571Y-146321428D02*
X41142857Y-146321428D01*
X41285714Y-146250000D01*
X41357143Y-146178571D01*
X41428571Y-146035714D01*
X41428571Y-145750000D01*
X41357143Y-145607142D01*
X41285714Y-145535714D01*
X41142857Y-145464285D01*
X39928571Y-145464285D01*
X44178571Y-148164285D02*
X43464286Y-148664285D01*
X44178571Y-149021428D02*
X42678571Y-149021428D01*
X42678571Y-148450000D01*
X42750000Y-148307142D01*
X42821429Y-148235714D01*
X42964286Y-148164285D01*
X43178571Y-148164285D01*
X43321429Y-148235714D01*
X43392857Y-148307142D01*
X43464286Y-148450000D01*
X43464286Y-149021428D01*
X43392857Y-147521428D02*
X43392857Y-147021428D01*
X44178571Y-146807142D02*
X44178571Y-147521428D01*
X42678571Y-147521428D01*
X42678571Y-146807142D01*
X44178571Y-146164285D02*
X42678571Y-146164285D01*
X42678571Y-145807142D01*
X42750000Y-145592857D01*
X42892857Y-145449999D01*
X43035714Y-145378571D01*
X43321429Y-145307142D01*
X43535714Y-145307142D01*
X43821429Y-145378571D01*
X43964286Y-145449999D01*
X44107143Y-145592857D01*
X44178571Y-145807142D01*
X44178571Y-146164285D01*
X45250000Y-148342857D02*
X45178571Y-148485714D01*
X45178571Y-148700000D01*
X45250000Y-148914285D01*
X45392857Y-149057143D01*
X45535714Y-149128571D01*
X45821429Y-149200000D01*
X46035714Y-149200000D01*
X46321429Y-149128571D01*
X46464286Y-149057143D01*
X46607143Y-148914285D01*
X46678571Y-148700000D01*
X46678571Y-148557143D01*
X46607143Y-148342857D01*
X46535714Y-148271428D01*
X46035714Y-148271428D01*
X46035714Y-148557143D01*
X46678571Y-146771428D02*
X45964286Y-147271428D01*
X46678571Y-147628571D02*
X45178571Y-147628571D01*
X45178571Y-147057143D01*
X45250000Y-146914285D01*
X45321429Y-146842857D01*
X45464286Y-146771428D01*
X45678571Y-146771428D01*
X45821429Y-146842857D01*
X45892857Y-146914285D01*
X45964286Y-147057143D01*
X45964286Y-147628571D01*
X46678571Y-146128571D02*
X45178571Y-146128571D01*
X46678571Y-145271428D01*
X45178571Y-145271428D01*
X47678571Y-148892857D02*
X49178571Y-148392857D01*
X47678571Y-147892857D01*
X49178571Y-147392857D02*
X47678571Y-147392857D01*
X49178571Y-146678571D02*
X47678571Y-146678571D01*
X49178571Y-145821428D01*
X47678571Y-145821428D01*
D14*
X277410000Y-143285000D02*
X276210000Y-143285000D01*
X276210000Y-141535000D02*
X277410000Y-141535000D01*
X256270000Y-148270000D02*
X263890000Y-148270000D01*
X256270000Y-145730000D02*
X263890000Y-145730000D01*
X253450000Y-145450000D02*
X255000000Y-145450000D01*
X263890000Y-148270000D02*
X263890000Y-145730000D01*
X256270000Y-145730000D02*
X256270000Y-148270000D01*
X255000000Y-148550000D02*
X253450000Y-148550000D01*
X253450000Y-148550000D02*
X253450000Y-145450000D01*
X282940000Y-144940000D02*
G75*
G03X282940000Y-144940000I-100000J0D01*
G01*
X282190000Y-144690000D02*
X282690000Y-144690000D01*
X282190000Y-141790000D02*
X282190000Y-144690000D01*
X282690000Y-141790000D02*
X282190000Y-141790000D01*
X282690000Y-144690000D02*
X282690000Y-141790000D01*
X51300000Y-139450000D02*
X49750000Y-139450000D01*
X51300000Y-140750000D02*
X51300000Y-139450000D01*
X49877000Y-144941000D02*
X49877000Y-150783000D01*
X49877000Y-150783000D02*
X49623000Y-150783000D01*
X49623000Y-150783000D02*
X49623000Y-144941000D01*
X49623000Y-144941000D02*
X49750000Y-144941000D01*
X49750000Y-144941000D02*
X49750000Y-150783000D01*
X50004000Y-142274000D02*
X50004000Y-141893000D01*
X49496000Y-142274000D02*
X49496000Y-141893000D01*
X47464000Y-142274000D02*
X47464000Y-141893000D01*
X46956000Y-142274000D02*
X46956000Y-141893000D01*
X44924000Y-142274000D02*
X44924000Y-141893000D01*
X44416000Y-142274000D02*
X44416000Y-141893000D01*
X41876000Y-142274000D02*
X41876000Y-141893000D01*
X42384000Y-142274000D02*
X42384000Y-141893000D01*
X51020000Y-142274000D02*
X51020000Y-144814000D01*
X48480000Y-142274000D02*
X48480000Y-144814000D01*
X48480000Y-142274000D02*
X45940000Y-142274000D01*
X45940000Y-142274000D02*
X45940000Y-144814000D01*
X47464000Y-144814000D02*
X47464000Y-150910000D01*
X47464000Y-150910000D02*
X46956000Y-150910000D01*
X46956000Y-150910000D02*
X46956000Y-144814000D01*
X45940000Y-144814000D02*
X48480000Y-144814000D01*
X48480000Y-144814000D02*
X51020000Y-144814000D01*
X49496000Y-150910000D02*
X49496000Y-144814000D01*
X50004000Y-150910000D02*
X49496000Y-150910000D01*
X50004000Y-144814000D02*
X50004000Y-150910000D01*
X48480000Y-142274000D02*
X48480000Y-144814000D01*
X51020000Y-142274000D02*
X48480000Y-142274000D01*
X43400000Y-142274000D02*
X43400000Y-144814000D01*
X43400000Y-142274000D02*
X40860000Y-142274000D01*
X40860000Y-142274000D02*
X40860000Y-144814000D01*
X42384000Y-144814000D02*
X42384000Y-150910000D01*
X42384000Y-150910000D02*
X41876000Y-150910000D01*
X41876000Y-150910000D02*
X41876000Y-144814000D01*
X40860000Y-144814000D02*
X43400000Y-144814000D01*
X43400000Y-144814000D02*
X45940000Y-144814000D01*
X44416000Y-150910000D02*
X44416000Y-144814000D01*
X44924000Y-150910000D02*
X44416000Y-150910000D01*
X44924000Y-144814000D02*
X44924000Y-150910000D01*
X43400000Y-142274000D02*
X43400000Y-144814000D01*
X45940000Y-142274000D02*
X43400000Y-142274000D01*
X45940000Y-142274000D02*
X45940000Y-144814000D01*
X285440000Y-140110000D02*
X285440000Y-141660000D01*
X286740000Y-140110000D02*
X285440000Y-140110000D01*
X290931000Y-141533000D02*
X296773000Y-141533000D01*
X296773000Y-141533000D02*
X296773000Y-141787000D01*
X296773000Y-141787000D02*
X290931000Y-141787000D01*
X290931000Y-141787000D02*
X290931000Y-141660000D01*
X290931000Y-141660000D02*
X296773000Y-141660000D01*
X288264000Y-141406000D02*
X287883000Y-141406000D01*
X288264000Y-141914000D02*
X287883000Y-141914000D01*
X288264000Y-143946000D02*
X287883000Y-143946000D01*
X288264000Y-144454000D02*
X287883000Y-144454000D01*
X288264000Y-146486000D02*
X287883000Y-146486000D01*
X288264000Y-146994000D02*
X287883000Y-146994000D01*
X290804000Y-142930000D02*
X290804000Y-140390000D01*
X296900000Y-141914000D02*
X290804000Y-141914000D01*
X296900000Y-141406000D02*
X296900000Y-141914000D01*
X290804000Y-141406000D02*
X296900000Y-141406000D01*
X288264000Y-142930000D02*
X290804000Y-142930000D01*
X288264000Y-140390000D02*
X288264000Y-142930000D01*
X288264000Y-140390000D02*
X290804000Y-140390000D01*
X288264000Y-145470000D02*
X290804000Y-145470000D01*
X288264000Y-145470000D02*
X288264000Y-148010000D01*
X290804000Y-146486000D02*
X296900000Y-146486000D01*
X296900000Y-146486000D02*
X296900000Y-146994000D01*
X296900000Y-146994000D02*
X290804000Y-146994000D01*
X290804000Y-148010000D02*
X290804000Y-145470000D01*
X290804000Y-145470000D02*
X290804000Y-142930000D01*
X296900000Y-144454000D02*
X290804000Y-144454000D01*
X296900000Y-143946000D02*
X296900000Y-144454000D01*
X290804000Y-143946000D02*
X296900000Y-143946000D01*
X288264000Y-145470000D02*
X290804000Y-145470000D01*
X288264000Y-142930000D02*
X288264000Y-145470000D01*
X288264000Y-142930000D02*
X290804000Y-142930000D01*
X288264000Y-148010000D02*
X290804000Y-148010000D01*
X56270000Y-142270000D02*
X63890000Y-142270000D01*
X56270000Y-139730000D02*
X63890000Y-139730000D01*
X53450000Y-139450000D02*
X55000000Y-139450000D01*
X63890000Y-142270000D02*
X63890000Y-139730000D01*
X56270000Y-139730000D02*
X56270000Y-142270000D01*
X55000000Y-142550000D02*
X53450000Y-142550000D01*
X53450000Y-142550000D02*
X53450000Y-139450000D01*
X256270000Y-142270000D02*
X263890000Y-142270000D01*
X256270000Y-139730000D02*
X263890000Y-139730000D01*
X253450000Y-139450000D02*
X255000000Y-139450000D01*
X263890000Y-142270000D02*
X263890000Y-139730000D01*
X256270000Y-139730000D02*
X256270000Y-142270000D01*
X255000000Y-142550000D02*
X253450000Y-142550000D01*
X253450000Y-142550000D02*
X253450000Y-139450000D01*
X131270000Y-142270000D02*
X138890000Y-142270000D01*
X131270000Y-139730000D02*
X138890000Y-139730000D01*
X128450000Y-139450000D02*
X130000000Y-139450000D01*
X138890000Y-142270000D02*
X138890000Y-139730000D01*
X131270000Y-139730000D02*
X131270000Y-142270000D01*
X130000000Y-142550000D02*
X128450000Y-142550000D01*
X128450000Y-142550000D02*
X128450000Y-139450000D01*
X231270000Y-142270000D02*
X238890000Y-142270000D01*
X231270000Y-139730000D02*
X238890000Y-139730000D01*
X228450000Y-139450000D02*
X230000000Y-139450000D01*
X238890000Y-142270000D02*
X238890000Y-139730000D01*
X231270000Y-139730000D02*
X231270000Y-142270000D01*
X230000000Y-142550000D02*
X228450000Y-142550000D01*
X228450000Y-142550000D02*
X228450000Y-139450000D01*
X106270000Y-142270000D02*
X113890000Y-142270000D01*
X106270000Y-139730000D02*
X113890000Y-139730000D01*
X103450000Y-139450000D02*
X105000000Y-139450000D01*
X113890000Y-142270000D02*
X113890000Y-139730000D01*
X106270000Y-139730000D02*
X106270000Y-142270000D01*
X105000000Y-142550000D02*
X103450000Y-142550000D01*
X103450000Y-142550000D02*
X103450000Y-139450000D01*
X181270000Y-142270000D02*
X188890000Y-142270000D01*
X181270000Y-139730000D02*
X188890000Y-139730000D01*
X178450000Y-139450000D02*
X180000000Y-139450000D01*
X188890000Y-142270000D02*
X188890000Y-139730000D01*
X181270000Y-139730000D02*
X181270000Y-142270000D01*
X180000000Y-142550000D02*
X178450000Y-142550000D01*
X178450000Y-142550000D02*
X178450000Y-139450000D01*
X156270000Y-142270000D02*
X163890000Y-142270000D01*
X156270000Y-139730000D02*
X163890000Y-139730000D01*
X153450000Y-139450000D02*
X155000000Y-139450000D01*
X163890000Y-142270000D02*
X163890000Y-139730000D01*
X156270000Y-139730000D02*
X156270000Y-142270000D01*
X155000000Y-142550000D02*
X153450000Y-142550000D01*
X153450000Y-142550000D02*
X153450000Y-139450000D01*
X206270000Y-142270000D02*
X213890000Y-142270000D01*
X206270000Y-139730000D02*
X213890000Y-139730000D01*
X203450000Y-139450000D02*
X205000000Y-139450000D01*
X213890000Y-142270000D02*
X213890000Y-139730000D01*
X206270000Y-139730000D02*
X206270000Y-142270000D01*
X205000000Y-142550000D02*
X203450000Y-142550000D01*
X203450000Y-142550000D02*
X203450000Y-139450000D01*
X81270000Y-142270000D02*
X88890000Y-142270000D01*
X81270000Y-139730000D02*
X88890000Y-139730000D01*
X78450000Y-139450000D02*
X80000000Y-139450000D01*
X88890000Y-142270000D02*
X88890000Y-139730000D01*
X81270000Y-139730000D02*
X81270000Y-142270000D01*
X80000000Y-142550000D02*
X78450000Y-142550000D01*
X78450000Y-142550000D02*
X78450000Y-139450000D01*
X31270000Y-142270000D02*
X38890000Y-142270000D01*
X31270000Y-139730000D02*
X38890000Y-139730000D01*
X28450000Y-139450000D02*
X30000000Y-139450000D01*
X38890000Y-142270000D02*
X38890000Y-139730000D01*
X31270000Y-139730000D02*
X31270000Y-142270000D01*
X30000000Y-142550000D02*
X28450000Y-142550000D01*
X28450000Y-142550000D02*
X28450000Y-139450000D01*
X31270000Y-148270000D02*
X38890000Y-148270000D01*
X31270000Y-145730000D02*
X38890000Y-145730000D01*
X28450000Y-145450000D02*
X30000000Y-145450000D01*
X38890000Y-148270000D02*
X38890000Y-145730000D01*
X31270000Y-145730000D02*
X31270000Y-148270000D01*
X30000000Y-148550000D02*
X28450000Y-148550000D01*
X28450000Y-148550000D02*
X28450000Y-145450000D01*
X56270000Y-148270000D02*
X63890000Y-148270000D01*
X56270000Y-145730000D02*
X63890000Y-145730000D01*
X53450000Y-145450000D02*
X55000000Y-145450000D01*
X63890000Y-148270000D02*
X63890000Y-145730000D01*
X56270000Y-145730000D02*
X56270000Y-148270000D01*
X55000000Y-148550000D02*
X53450000Y-148550000D01*
X53450000Y-148550000D02*
X53450000Y-145450000D01*
X81270000Y-148270000D02*
X88890000Y-148270000D01*
X81270000Y-145730000D02*
X88890000Y-145730000D01*
X78450000Y-145450000D02*
X80000000Y-145450000D01*
X88890000Y-148270000D02*
X88890000Y-145730000D01*
X81270000Y-145730000D02*
X81270000Y-148270000D01*
X80000000Y-148550000D02*
X78450000Y-148550000D01*
X78450000Y-148550000D02*
X78450000Y-145450000D01*
X106270000Y-148270000D02*
X113890000Y-148270000D01*
X106270000Y-145730000D02*
X113890000Y-145730000D01*
X103450000Y-145450000D02*
X105000000Y-145450000D01*
X113890000Y-148270000D02*
X113890000Y-145730000D01*
X106270000Y-145730000D02*
X106270000Y-148270000D01*
X105000000Y-148550000D02*
X103450000Y-148550000D01*
X103450000Y-148550000D02*
X103450000Y-145450000D01*
X131270000Y-148270000D02*
X138890000Y-148270000D01*
X131270000Y-145730000D02*
X138890000Y-145730000D01*
X128450000Y-145450000D02*
X130000000Y-145450000D01*
X138890000Y-148270000D02*
X138890000Y-145730000D01*
X131270000Y-145730000D02*
X131270000Y-148270000D01*
X130000000Y-148550000D02*
X128450000Y-148550000D01*
X128450000Y-148550000D02*
X128450000Y-145450000D01*
X156270000Y-148270000D02*
X163890000Y-148270000D01*
X156270000Y-145730000D02*
X163890000Y-145730000D01*
X153450000Y-145450000D02*
X155000000Y-145450000D01*
X163890000Y-148270000D02*
X163890000Y-145730000D01*
X156270000Y-145730000D02*
X156270000Y-148270000D01*
X155000000Y-148550000D02*
X153450000Y-148550000D01*
X153450000Y-148550000D02*
X153450000Y-145450000D01*
X181270000Y-148270000D02*
X188890000Y-148270000D01*
X181270000Y-145730000D02*
X188890000Y-145730000D01*
X178450000Y-145450000D02*
X180000000Y-145450000D01*
X188890000Y-148270000D02*
X188890000Y-145730000D01*
X181270000Y-145730000D02*
X181270000Y-148270000D01*
X180000000Y-148550000D02*
X178450000Y-148550000D01*
X178450000Y-148550000D02*
X178450000Y-145450000D01*
X206270000Y-148270000D02*
X213890000Y-148270000D01*
X206270000Y-145730000D02*
X213890000Y-145730000D01*
X203450000Y-145450000D02*
X205000000Y-145450000D01*
X213890000Y-148270000D02*
X213890000Y-145730000D01*
X206270000Y-145730000D02*
X206270000Y-148270000D01*
X205000000Y-148550000D02*
X203450000Y-148550000D01*
X203450000Y-148550000D02*
X203450000Y-145450000D01*
X231270000Y-148270000D02*
X238890000Y-148270000D01*
X231270000Y-145730000D02*
X238890000Y-145730000D01*
X228450000Y-145450000D02*
X230000000Y-145450000D01*
X238890000Y-148270000D02*
X238890000Y-145730000D01*
X231270000Y-145730000D02*
X231270000Y-148270000D01*
X230000000Y-148550000D02*
X228450000Y-148550000D01*
X228450000Y-148550000D02*
X228450000Y-145450000D01*
X272040000Y-143940000D02*
X272040000Y-141400000D01*
X271760000Y-146760000D02*
X271760000Y-145210000D01*
X272040000Y-143940000D02*
X274580000Y-143940000D01*
X274860000Y-145210000D02*
X274860000Y-146760000D01*
X274860000Y-146760000D02*
X271760000Y-146760000D01*
X274580000Y-143940000D02*
X274580000Y-141400000D01*
X274580000Y-141400000D02*
X272040000Y-141400000D01*
X282750000Y-145400000D02*
X281750000Y-145400000D01*
X281750000Y-147100000D02*
X282750000Y-147100000D01*
X280360000Y-143710000D02*
X280360000Y-142710000D01*
X278660000Y-142710000D02*
X278660000Y-143710000D01*
X277510000Y-145260000D02*
X276510000Y-145260000D01*
X276510000Y-146960000D02*
X277510000Y-146960000D01*
X276773334Y-144522381D02*
X276440000Y-144046190D01*
X276201905Y-144522381D02*
X276201905Y-143522381D01*
X276582858Y-143522381D01*
X276678096Y-143570000D01*
X276725715Y-143617619D01*
X276773334Y-143712857D01*
X276773334Y-143855714D01*
X276725715Y-143950952D01*
X276678096Y-143998571D01*
X276582858Y-144046190D01*
X276201905Y-144046190D01*
X277725715Y-144522381D02*
X277154286Y-144522381D01*
X277440000Y-144522381D02*
X277440000Y-143522381D01*
X277344762Y-143665238D01*
X277249524Y-143760476D01*
X277154286Y-143808095D01*
X252952381Y-148014286D02*
X251952381Y-148014286D01*
X251952381Y-147633333D01*
X252000000Y-147538095D01*
X252047619Y-147490476D01*
X252142857Y-147442857D01*
X252285714Y-147442857D01*
X252380952Y-147490476D01*
X252428571Y-147538095D01*
X252476190Y-147633333D01*
X252476190Y-148014286D01*
X252047619Y-147061905D02*
X252000000Y-147014286D01*
X251952381Y-146919048D01*
X251952381Y-146680952D01*
X252000000Y-146585714D01*
X252047619Y-146538095D01*
X252142857Y-146490476D01*
X252238095Y-146490476D01*
X252380952Y-146538095D01*
X252952381Y-147109524D01*
X252952381Y-146490476D01*
X251952381Y-145871429D02*
X251952381Y-145776190D01*
X252000000Y-145680952D01*
X252047619Y-145633333D01*
X252142857Y-145585714D01*
X252333333Y-145538095D01*
X252571429Y-145538095D01*
X252761905Y-145585714D01*
X252857143Y-145633333D01*
X252904762Y-145680952D01*
X252952381Y-145776190D01*
X252952381Y-145871429D01*
X252904762Y-145966667D01*
X252857143Y-146014286D01*
X252761905Y-146061905D01*
X252571429Y-146109524D01*
X252333333Y-146109524D01*
X252142857Y-146061905D01*
X252047619Y-146014286D01*
X252000000Y-145966667D01*
X251952381Y-145871429D01*
X283128095Y-140602381D02*
X283128095Y-141411905D01*
X283175714Y-141507143D01*
X283223333Y-141554762D01*
X283318571Y-141602381D01*
X283509048Y-141602381D01*
X283604286Y-141554762D01*
X283651905Y-141507143D01*
X283699524Y-141411905D01*
X283699524Y-140602381D01*
X284699524Y-141602381D02*
X284128095Y-141602381D01*
X284413809Y-141602381D02*
X284413809Y-140602381D01*
X284318571Y-140745238D01*
X284223333Y-140840476D01*
X284128095Y-140888095D01*
X23452381Y-144661905D02*
X22452381Y-144661905D01*
X22928571Y-144661905D02*
X22928571Y-144090476D01*
X23452381Y-144090476D02*
X22452381Y-144090476D01*
X23452381Y-143090476D02*
X23452381Y-143661905D01*
X23452381Y-143376191D02*
X22452381Y-143376191D01*
X22595238Y-143471429D01*
X22690476Y-143566667D01*
X22738095Y-143661905D01*
X267052381Y-144761905D02*
X266052381Y-144761905D01*
X266528571Y-144761905D02*
X266528571Y-144190476D01*
X267052381Y-144190476D02*
X266052381Y-144190476D01*
X266147619Y-143761905D02*
X266100000Y-143714286D01*
X266052381Y-143619048D01*
X266052381Y-143380952D01*
X266100000Y-143285714D01*
X266147619Y-143238095D01*
X266242857Y-143190476D01*
X266338095Y-143190476D01*
X266480952Y-143238095D01*
X267052381Y-143809524D01*
X267052381Y-143190476D01*
X51202381Y-143333333D02*
X51916667Y-143333333D01*
X52059524Y-143380953D01*
X52154762Y-143476191D01*
X52202381Y-143619048D01*
X52202381Y-143714286D01*
X52202381Y-142333333D02*
X52202381Y-142904762D01*
X52202381Y-142619048D02*
X51202381Y-142619048D01*
X51345238Y-142714286D01*
X51440476Y-142809524D01*
X51488095Y-142904762D01*
X288202381Y-139583333D02*
X288916667Y-139583333D01*
X289059524Y-139630953D01*
X289154762Y-139726191D01*
X289202381Y-139869048D01*
X289202381Y-139964286D01*
X288297619Y-139154762D02*
X288250000Y-139107143D01*
X288202381Y-139011905D01*
X288202381Y-138773809D01*
X288250000Y-138678571D01*
X288297619Y-138630952D01*
X288392857Y-138583333D01*
X288488095Y-138583333D01*
X288630952Y-138630952D01*
X289202381Y-139202381D01*
X289202381Y-138583333D01*
X52952381Y-141638095D02*
X51952381Y-141638095D01*
X51952381Y-141257142D01*
X52000000Y-141161904D01*
X52047619Y-141114285D01*
X52142857Y-141066666D01*
X52285714Y-141066666D01*
X52380952Y-141114285D01*
X52428571Y-141161904D01*
X52476190Y-141257142D01*
X52476190Y-141638095D01*
X52952381Y-140114285D02*
X52952381Y-140685714D01*
X52952381Y-140400000D02*
X51952381Y-140400000D01*
X52095238Y-140495238D01*
X52190476Y-140590476D01*
X52238095Y-140685714D01*
X252852381Y-141738095D02*
X251852381Y-141738095D01*
X251852381Y-141357142D01*
X251900000Y-141261904D01*
X251947619Y-141214285D01*
X252042857Y-141166666D01*
X252185714Y-141166666D01*
X252280952Y-141214285D01*
X252328571Y-141261904D01*
X252376190Y-141357142D01*
X252376190Y-141738095D01*
X251947619Y-140785714D02*
X251900000Y-140738095D01*
X251852381Y-140642857D01*
X251852381Y-140404761D01*
X251900000Y-140309523D01*
X251947619Y-140261904D01*
X252042857Y-140214285D01*
X252138095Y-140214285D01*
X252280952Y-140261904D01*
X252852381Y-140833333D01*
X252852381Y-140214285D01*
X128052381Y-141638095D02*
X127052381Y-141638095D01*
X127052381Y-141257142D01*
X127100000Y-141161904D01*
X127147619Y-141114285D01*
X127242857Y-141066666D01*
X127385714Y-141066666D01*
X127480952Y-141114285D01*
X127528571Y-141161904D01*
X127576190Y-141257142D01*
X127576190Y-141638095D01*
X127052381Y-140733333D02*
X127052381Y-140114285D01*
X127433333Y-140447619D01*
X127433333Y-140304761D01*
X127480952Y-140209523D01*
X127528571Y-140161904D01*
X127623810Y-140114285D01*
X127861905Y-140114285D01*
X127957143Y-140161904D01*
X128004762Y-140209523D01*
X128052381Y-140304761D01*
X128052381Y-140590476D01*
X128004762Y-140685714D01*
X127957143Y-140733333D01*
X228052381Y-141638095D02*
X227052381Y-141638095D01*
X227052381Y-141257142D01*
X227100000Y-141161904D01*
X227147619Y-141114285D01*
X227242857Y-141066666D01*
X227385714Y-141066666D01*
X227480952Y-141114285D01*
X227528571Y-141161904D01*
X227576190Y-141257142D01*
X227576190Y-141638095D01*
X227385714Y-140209523D02*
X228052381Y-140209523D01*
X227004762Y-140447619D02*
X227719048Y-140685714D01*
X227719048Y-140066666D01*
X102952381Y-141838095D02*
X101952381Y-141838095D01*
X101952381Y-141457142D01*
X102000000Y-141361904D01*
X102047619Y-141314285D01*
X102142857Y-141266666D01*
X102285714Y-141266666D01*
X102380952Y-141314285D01*
X102428571Y-141361904D01*
X102476190Y-141457142D01*
X102476190Y-141838095D01*
X101952381Y-140361904D02*
X101952381Y-140838095D01*
X102428571Y-140885714D01*
X102380952Y-140838095D01*
X102333333Y-140742857D01*
X102333333Y-140504761D01*
X102380952Y-140409523D01*
X102428571Y-140361904D01*
X102523810Y-140314285D01*
X102761905Y-140314285D01*
X102857143Y-140361904D01*
X102904762Y-140409523D01*
X102952381Y-140504761D01*
X102952381Y-140742857D01*
X102904762Y-140838095D01*
X102857143Y-140885714D01*
X177952381Y-141738095D02*
X176952381Y-141738095D01*
X176952381Y-141357142D01*
X177000000Y-141261904D01*
X177047619Y-141214285D01*
X177142857Y-141166666D01*
X177285714Y-141166666D01*
X177380952Y-141214285D01*
X177428571Y-141261904D01*
X177476190Y-141357142D01*
X177476190Y-141738095D01*
X176952381Y-140309523D02*
X176952381Y-140500000D01*
X177000000Y-140595238D01*
X177047619Y-140642857D01*
X177190476Y-140738095D01*
X177380952Y-140785714D01*
X177761905Y-140785714D01*
X177857143Y-140738095D01*
X177904762Y-140690476D01*
X177952381Y-140595238D01*
X177952381Y-140404761D01*
X177904762Y-140309523D01*
X177857143Y-140261904D01*
X177761905Y-140214285D01*
X177523810Y-140214285D01*
X177428571Y-140261904D01*
X177380952Y-140309523D01*
X177333333Y-140404761D01*
X177333333Y-140595238D01*
X177380952Y-140690476D01*
X177428571Y-140738095D01*
X177523810Y-140785714D01*
X152852381Y-141638095D02*
X151852381Y-141638095D01*
X151852381Y-141257142D01*
X151900000Y-141161904D01*
X151947619Y-141114285D01*
X152042857Y-141066666D01*
X152185714Y-141066666D01*
X152280952Y-141114285D01*
X152328571Y-141161904D01*
X152376190Y-141257142D01*
X152376190Y-141638095D01*
X151852381Y-140733333D02*
X151852381Y-140066666D01*
X152852381Y-140495238D01*
X202952381Y-141738095D02*
X201952381Y-141738095D01*
X201952381Y-141357142D01*
X202000000Y-141261904D01*
X202047619Y-141214285D01*
X202142857Y-141166666D01*
X202285714Y-141166666D01*
X202380952Y-141214285D01*
X202428571Y-141261904D01*
X202476190Y-141357142D01*
X202476190Y-141738095D01*
X202380952Y-140595238D02*
X202333333Y-140690476D01*
X202285714Y-140738095D01*
X202190476Y-140785714D01*
X202142857Y-140785714D01*
X202047619Y-140738095D01*
X202000000Y-140690476D01*
X201952381Y-140595238D01*
X201952381Y-140404761D01*
X202000000Y-140309523D01*
X202047619Y-140261904D01*
X202142857Y-140214285D01*
X202190476Y-140214285D01*
X202285714Y-140261904D01*
X202333333Y-140309523D01*
X202380952Y-140404761D01*
X202380952Y-140595238D01*
X202428571Y-140690476D01*
X202476190Y-140738095D01*
X202571429Y-140785714D01*
X202761905Y-140785714D01*
X202857143Y-140738095D01*
X202904762Y-140690476D01*
X202952381Y-140595238D01*
X202952381Y-140404761D01*
X202904762Y-140309523D01*
X202857143Y-140261904D01*
X202761905Y-140214285D01*
X202571429Y-140214285D01*
X202476190Y-140261904D01*
X202428571Y-140309523D01*
X202380952Y-140404761D01*
X77952381Y-141838095D02*
X76952381Y-141838095D01*
X76952381Y-141457142D01*
X77000000Y-141361904D01*
X77047619Y-141314285D01*
X77142857Y-141266666D01*
X77285714Y-141266666D01*
X77380952Y-141314285D01*
X77428571Y-141361904D01*
X77476190Y-141457142D01*
X77476190Y-141838095D01*
X77952381Y-140790476D02*
X77952381Y-140600000D01*
X77904762Y-140504761D01*
X77857143Y-140457142D01*
X77714286Y-140361904D01*
X77523810Y-140314285D01*
X77142857Y-140314285D01*
X77047619Y-140361904D01*
X77000000Y-140409523D01*
X76952381Y-140504761D01*
X76952381Y-140695238D01*
X77000000Y-140790476D01*
X77047619Y-140838095D01*
X77142857Y-140885714D01*
X77380952Y-140885714D01*
X77476190Y-140838095D01*
X77523810Y-140790476D01*
X77571429Y-140695238D01*
X77571429Y-140504761D01*
X77523810Y-140409523D01*
X77476190Y-140361904D01*
X77380952Y-140314285D01*
X28052381Y-142114286D02*
X27052381Y-142114286D01*
X27052381Y-141733333D01*
X27100000Y-141638095D01*
X27147619Y-141590476D01*
X27242857Y-141542857D01*
X27385714Y-141542857D01*
X27480952Y-141590476D01*
X27528571Y-141638095D01*
X27576190Y-141733333D01*
X27576190Y-142114286D01*
X28052381Y-140590476D02*
X28052381Y-141161905D01*
X28052381Y-140876191D02*
X27052381Y-140876191D01*
X27195238Y-140971429D01*
X27290476Y-141066667D01*
X27338095Y-141161905D01*
X27052381Y-139971429D02*
X27052381Y-139876190D01*
X27100000Y-139780952D01*
X27147619Y-139733333D01*
X27242857Y-139685714D01*
X27433333Y-139638095D01*
X27671429Y-139638095D01*
X27861905Y-139685714D01*
X27957143Y-139733333D01*
X28004762Y-139780952D01*
X28052381Y-139876190D01*
X28052381Y-139971429D01*
X28004762Y-140066667D01*
X27957143Y-140114286D01*
X27861905Y-140161905D01*
X27671429Y-140209524D01*
X27433333Y-140209524D01*
X27242857Y-140161905D01*
X27147619Y-140114286D01*
X27100000Y-140066667D01*
X27052381Y-139971429D01*
X27952381Y-148014286D02*
X26952381Y-148014286D01*
X26952381Y-147633333D01*
X27000000Y-147538095D01*
X27047619Y-147490476D01*
X27142857Y-147442857D01*
X27285714Y-147442857D01*
X27380952Y-147490476D01*
X27428571Y-147538095D01*
X27476190Y-147633333D01*
X27476190Y-148014286D01*
X27952381Y-146490476D02*
X27952381Y-147061905D01*
X27952381Y-146776191D02*
X26952381Y-146776191D01*
X27095238Y-146871429D01*
X27190476Y-146966667D01*
X27238095Y-147061905D01*
X27952381Y-145538095D02*
X27952381Y-146109524D01*
X27952381Y-145823810D02*
X26952381Y-145823810D01*
X27095238Y-145919048D01*
X27190476Y-146014286D01*
X27238095Y-146109524D01*
X52952381Y-148314286D02*
X51952381Y-148314286D01*
X51952381Y-147933333D01*
X52000000Y-147838095D01*
X52047619Y-147790476D01*
X52142857Y-147742857D01*
X52285714Y-147742857D01*
X52380952Y-147790476D01*
X52428571Y-147838095D01*
X52476190Y-147933333D01*
X52476190Y-148314286D01*
X52952381Y-146790476D02*
X52952381Y-147361905D01*
X52952381Y-147076191D02*
X51952381Y-147076191D01*
X52095238Y-147171429D01*
X52190476Y-147266667D01*
X52238095Y-147361905D01*
X52047619Y-146409524D02*
X52000000Y-146361905D01*
X51952381Y-146266667D01*
X51952381Y-146028571D01*
X52000000Y-145933333D01*
X52047619Y-145885714D01*
X52142857Y-145838095D01*
X52238095Y-145838095D01*
X52380952Y-145885714D01*
X52952381Y-146457143D01*
X52952381Y-145838095D01*
X77852381Y-148214286D02*
X76852381Y-148214286D01*
X76852381Y-147833333D01*
X76900000Y-147738095D01*
X76947619Y-147690476D01*
X77042857Y-147642857D01*
X77185714Y-147642857D01*
X77280952Y-147690476D01*
X77328571Y-147738095D01*
X77376190Y-147833333D01*
X77376190Y-148214286D01*
X77852381Y-146690476D02*
X77852381Y-147261905D01*
X77852381Y-146976191D02*
X76852381Y-146976191D01*
X76995238Y-147071429D01*
X77090476Y-147166667D01*
X77138095Y-147261905D01*
X76852381Y-146357143D02*
X76852381Y-145738095D01*
X77233333Y-146071429D01*
X77233333Y-145928571D01*
X77280952Y-145833333D01*
X77328571Y-145785714D01*
X77423810Y-145738095D01*
X77661905Y-145738095D01*
X77757143Y-145785714D01*
X77804762Y-145833333D01*
X77852381Y-145928571D01*
X77852381Y-146214286D01*
X77804762Y-146309524D01*
X77757143Y-146357143D01*
X102952381Y-148314286D02*
X101952381Y-148314286D01*
X101952381Y-147933333D01*
X102000000Y-147838095D01*
X102047619Y-147790476D01*
X102142857Y-147742857D01*
X102285714Y-147742857D01*
X102380952Y-147790476D01*
X102428571Y-147838095D01*
X102476190Y-147933333D01*
X102476190Y-148314286D01*
X102952381Y-146790476D02*
X102952381Y-147361905D01*
X102952381Y-147076191D02*
X101952381Y-147076191D01*
X102095238Y-147171429D01*
X102190476Y-147266667D01*
X102238095Y-147361905D01*
X102285714Y-145933333D02*
X102952381Y-145933333D01*
X101904762Y-146171429D02*
X102619048Y-146409524D01*
X102619048Y-145790476D01*
X128052381Y-148114286D02*
X127052381Y-148114286D01*
X127052381Y-147733333D01*
X127100000Y-147638095D01*
X127147619Y-147590476D01*
X127242857Y-147542857D01*
X127385714Y-147542857D01*
X127480952Y-147590476D01*
X127528571Y-147638095D01*
X127576190Y-147733333D01*
X127576190Y-148114286D01*
X128052381Y-146590476D02*
X128052381Y-147161905D01*
X128052381Y-146876191D02*
X127052381Y-146876191D01*
X127195238Y-146971429D01*
X127290476Y-147066667D01*
X127338095Y-147161905D01*
X127052381Y-145685714D02*
X127052381Y-146161905D01*
X127528571Y-146209524D01*
X127480952Y-146161905D01*
X127433333Y-146066667D01*
X127433333Y-145828571D01*
X127480952Y-145733333D01*
X127528571Y-145685714D01*
X127623810Y-145638095D01*
X127861905Y-145638095D01*
X127957143Y-145685714D01*
X128004762Y-145733333D01*
X128052381Y-145828571D01*
X128052381Y-146066667D01*
X128004762Y-146161905D01*
X127957143Y-146209524D01*
X152952381Y-148114286D02*
X151952381Y-148114286D01*
X151952381Y-147733333D01*
X152000000Y-147638095D01*
X152047619Y-147590476D01*
X152142857Y-147542857D01*
X152285714Y-147542857D01*
X152380952Y-147590476D01*
X152428571Y-147638095D01*
X152476190Y-147733333D01*
X152476190Y-148114286D01*
X152952381Y-146590476D02*
X152952381Y-147161905D01*
X152952381Y-146876191D02*
X151952381Y-146876191D01*
X152095238Y-146971429D01*
X152190476Y-147066667D01*
X152238095Y-147161905D01*
X151952381Y-145733333D02*
X151952381Y-145923810D01*
X152000000Y-146019048D01*
X152047619Y-146066667D01*
X152190476Y-146161905D01*
X152380952Y-146209524D01*
X152761905Y-146209524D01*
X152857143Y-146161905D01*
X152904762Y-146114286D01*
X152952381Y-146019048D01*
X152952381Y-145828571D01*
X152904762Y-145733333D01*
X152857143Y-145685714D01*
X152761905Y-145638095D01*
X152523810Y-145638095D01*
X152428571Y-145685714D01*
X152380952Y-145733333D01*
X152333333Y-145828571D01*
X152333333Y-146019048D01*
X152380952Y-146114286D01*
X152428571Y-146161905D01*
X152523810Y-146209524D01*
X177952381Y-148114286D02*
X176952381Y-148114286D01*
X176952381Y-147733333D01*
X177000000Y-147638095D01*
X177047619Y-147590476D01*
X177142857Y-147542857D01*
X177285714Y-147542857D01*
X177380952Y-147590476D01*
X177428571Y-147638095D01*
X177476190Y-147733333D01*
X177476190Y-148114286D01*
X177952381Y-146590476D02*
X177952381Y-147161905D01*
X177952381Y-146876191D02*
X176952381Y-146876191D01*
X177095238Y-146971429D01*
X177190476Y-147066667D01*
X177238095Y-147161905D01*
X176952381Y-146257143D02*
X176952381Y-145590476D01*
X177952381Y-146019048D01*
X202952381Y-148214286D02*
X201952381Y-148214286D01*
X201952381Y-147833333D01*
X202000000Y-147738095D01*
X202047619Y-147690476D01*
X202142857Y-147642857D01*
X202285714Y-147642857D01*
X202380952Y-147690476D01*
X202428571Y-147738095D01*
X202476190Y-147833333D01*
X202476190Y-148214286D01*
X202952381Y-146690476D02*
X202952381Y-147261905D01*
X202952381Y-146976191D02*
X201952381Y-146976191D01*
X202095238Y-147071429D01*
X202190476Y-147166667D01*
X202238095Y-147261905D01*
X202380952Y-146119048D02*
X202333333Y-146214286D01*
X202285714Y-146261905D01*
X202190476Y-146309524D01*
X202142857Y-146309524D01*
X202047619Y-146261905D01*
X202000000Y-146214286D01*
X201952381Y-146119048D01*
X201952381Y-145928571D01*
X202000000Y-145833333D01*
X202047619Y-145785714D01*
X202142857Y-145738095D01*
X202190476Y-145738095D01*
X202285714Y-145785714D01*
X202333333Y-145833333D01*
X202380952Y-145928571D01*
X202380952Y-146119048D01*
X202428571Y-146214286D01*
X202476190Y-146261905D01*
X202571429Y-146309524D01*
X202761905Y-146309524D01*
X202857143Y-146261905D01*
X202904762Y-146214286D01*
X202952381Y-146119048D01*
X202952381Y-145928571D01*
X202904762Y-145833333D01*
X202857143Y-145785714D01*
X202761905Y-145738095D01*
X202571429Y-145738095D01*
X202476190Y-145785714D01*
X202428571Y-145833333D01*
X202380952Y-145928571D01*
X227852381Y-148214286D02*
X226852381Y-148214286D01*
X226852381Y-147833333D01*
X226900000Y-147738095D01*
X226947619Y-147690476D01*
X227042857Y-147642857D01*
X227185714Y-147642857D01*
X227280952Y-147690476D01*
X227328571Y-147738095D01*
X227376190Y-147833333D01*
X227376190Y-148214286D01*
X227852381Y-146690476D02*
X227852381Y-147261905D01*
X227852381Y-146976191D02*
X226852381Y-146976191D01*
X226995238Y-147071429D01*
X227090476Y-147166667D01*
X227138095Y-147261905D01*
X227852381Y-146214286D02*
X227852381Y-146023810D01*
X227804762Y-145928571D01*
X227757143Y-145880952D01*
X227614286Y-145785714D01*
X227423810Y-145738095D01*
X227042857Y-145738095D01*
X226947619Y-145785714D01*
X226900000Y-145833333D01*
X226852381Y-145928571D01*
X226852381Y-146119048D01*
X226900000Y-146214286D01*
X226947619Y-146261905D01*
X227042857Y-146309524D01*
X227280952Y-146309524D01*
X227376190Y-146261905D01*
X227423810Y-146214286D01*
X227471429Y-146119048D01*
X227471429Y-145928571D01*
X227423810Y-145833333D01*
X227376190Y-145785714D01*
X227280952Y-145738095D01*
X272095714Y-148052381D02*
X272095714Y-147052381D01*
X272476667Y-147052381D01*
X272571905Y-147100000D01*
X272619524Y-147147619D01*
X272667143Y-147242857D01*
X272667143Y-147385714D01*
X272619524Y-147480952D01*
X272571905Y-147528571D01*
X272476667Y-147576190D01*
X272095714Y-147576190D01*
X273048095Y-147147619D02*
X273095714Y-147100000D01*
X273190952Y-147052381D01*
X273429048Y-147052381D01*
X273524286Y-147100000D01*
X273571905Y-147147619D01*
X273619524Y-147242857D01*
X273619524Y-147338095D01*
X273571905Y-147480952D01*
X273000476Y-148052381D01*
X273619524Y-148052381D01*
X274571905Y-148052381D02*
X274000476Y-148052381D01*
X274286190Y-148052381D02*
X274286190Y-147052381D01*
X274190952Y-147195238D01*
X274095714Y-147290476D01*
X274000476Y-147338095D01*
X282143334Y-148347143D02*
X282095715Y-148394762D01*
X281952858Y-148442381D01*
X281857620Y-148442381D01*
X281714762Y-148394762D01*
X281619524Y-148299524D01*
X281571905Y-148204286D01*
X281524286Y-148013810D01*
X281524286Y-147870952D01*
X281571905Y-147680476D01*
X281619524Y-147585238D01*
X281714762Y-147490000D01*
X281857620Y-147442381D01*
X281952858Y-147442381D01*
X282095715Y-147490000D01*
X282143334Y-147537619D01*
X283095715Y-148442381D02*
X282524286Y-148442381D01*
X282810000Y-148442381D02*
X282810000Y-147442381D01*
X282714762Y-147585238D01*
X282619524Y-147680476D01*
X282524286Y-147728095D01*
X280107143Y-146086666D02*
X280154762Y-146134285D01*
X280202381Y-146277142D01*
X280202381Y-146372380D01*
X280154762Y-146515238D01*
X280059524Y-146610476D01*
X279964286Y-146658095D01*
X279773810Y-146705714D01*
X279630952Y-146705714D01*
X279440476Y-146658095D01*
X279345238Y-146610476D01*
X279250000Y-146515238D01*
X279202381Y-146372380D01*
X279202381Y-146277142D01*
X279250000Y-146134285D01*
X279297619Y-146086666D01*
X279297619Y-145705714D02*
X279250000Y-145658095D01*
X279202381Y-145562857D01*
X279202381Y-145324761D01*
X279250000Y-145229523D01*
X279297619Y-145181904D01*
X279392857Y-145134285D01*
X279488095Y-145134285D01*
X279630952Y-145181904D01*
X280202381Y-145753333D01*
X280202381Y-145134285D01*
X276703334Y-148187143D02*
X276655715Y-148234762D01*
X276512858Y-148282381D01*
X276417620Y-148282381D01*
X276274762Y-148234762D01*
X276179524Y-148139524D01*
X276131905Y-148044286D01*
X276084286Y-147853810D01*
X276084286Y-147710952D01*
X276131905Y-147520476D01*
X276179524Y-147425238D01*
X276274762Y-147330000D01*
X276417620Y-147282381D01*
X276512858Y-147282381D01*
X276655715Y-147330000D01*
X276703334Y-147377619D01*
X277036667Y-147282381D02*
X277655715Y-147282381D01*
X277322381Y-147663333D01*
X277465239Y-147663333D01*
X277560477Y-147710952D01*
X277608096Y-147758571D01*
X277655715Y-147853810D01*
X277655715Y-148091905D01*
X277608096Y-148187143D01*
X277560477Y-148234762D01*
X277465239Y-148282381D01*
X277179524Y-148282381D01*
X277084286Y-148234762D01*
X277036667Y-148187143D01*
X270952381Y-144761905D02*
X269952381Y-144761905D01*
X270428571Y-144761905D02*
X270428571Y-144190476D01*
X270952381Y-144190476D02*
X269952381Y-144190476D01*
X269952381Y-143809524D02*
X269952381Y-143190476D01*
X270333333Y-143523810D01*
X270333333Y-143380952D01*
X270380952Y-143285714D01*
X270428571Y-143238095D01*
X270523810Y-143190476D01*
X270761905Y-143190476D01*
X270857143Y-143238095D01*
X270904762Y-143285714D01*
X270952381Y-143380952D01*
X270952381Y-143666667D01*
X270904762Y-143761905D01*
X270857143Y-143809524D01*
%LPC*%
D15*
X275860000Y-142410000D03*
X277760000Y-142410000D03*
D16*
X255000000Y-147000000D03*
D17*
X257540000Y-147000000D03*
X260080000Y-147000000D03*
X262620000Y-147000000D03*
D18*
X283540000Y-144190000D03*
X283540000Y-143240000D03*
X283540000Y-142290000D03*
X281340000Y-142290000D03*
X281340000Y-144190000D03*
X281340000Y-143240000D03*
D19*
X23000000Y-144000000D03*
X266500000Y-144000000D03*
D16*
X49750000Y-140750000D03*
D17*
X47210000Y-140750000D03*
X44670000Y-140750000D03*
X42130000Y-140750000D03*
D20*
X286740000Y-141660000D03*
D21*
X286740000Y-144200000D03*
X286740000Y-146740000D03*
D16*
X55000000Y-141000000D03*
D17*
X57540000Y-141000000D03*
X60080000Y-141000000D03*
X62620000Y-141000000D03*
D16*
X255000000Y-141000000D03*
D17*
X257540000Y-141000000D03*
X260080000Y-141000000D03*
X262620000Y-141000000D03*
D16*
X130000000Y-141000000D03*
D17*
X132540000Y-141000000D03*
X135080000Y-141000000D03*
X137620000Y-141000000D03*
D16*
X230000000Y-141000000D03*
D17*
X232540000Y-141000000D03*
X235080000Y-141000000D03*
X237620000Y-141000000D03*
D16*
X105000000Y-141000000D03*
D17*
X107540000Y-141000000D03*
X110080000Y-141000000D03*
X112620000Y-141000000D03*
D16*
X180000000Y-141000000D03*
D17*
X182540000Y-141000000D03*
X185080000Y-141000000D03*
X187620000Y-141000000D03*
D16*
X155000000Y-141000000D03*
D17*
X157540000Y-141000000D03*
X160080000Y-141000000D03*
X162620000Y-141000000D03*
D16*
X205000000Y-141000000D03*
D17*
X207540000Y-141000000D03*
X210080000Y-141000000D03*
X212620000Y-141000000D03*
D16*
X80000000Y-141000000D03*
D17*
X82540000Y-141000000D03*
X85080000Y-141000000D03*
X87620000Y-141000000D03*
D16*
X30000000Y-141000000D03*
D17*
X32540000Y-141000000D03*
X35080000Y-141000000D03*
X37620000Y-141000000D03*
D16*
X30000000Y-147000000D03*
D17*
X32540000Y-147000000D03*
X35080000Y-147000000D03*
X37620000Y-147000000D03*
D16*
X55000000Y-147000000D03*
D17*
X57540000Y-147000000D03*
X60080000Y-147000000D03*
X62620000Y-147000000D03*
D16*
X80000000Y-147000000D03*
D17*
X82540000Y-147000000D03*
X85080000Y-147000000D03*
X87620000Y-147000000D03*
D16*
X105000000Y-147000000D03*
D17*
X107540000Y-147000000D03*
X110080000Y-147000000D03*
X112620000Y-147000000D03*
D16*
X130000000Y-147000000D03*
D17*
X132540000Y-147000000D03*
X135080000Y-147000000D03*
X137620000Y-147000000D03*
D16*
X155000000Y-147000000D03*
D17*
X157540000Y-147000000D03*
X160080000Y-147000000D03*
X162620000Y-147000000D03*
D16*
X180000000Y-147000000D03*
D17*
X182540000Y-147000000D03*
X185080000Y-147000000D03*
X187620000Y-147000000D03*
D16*
X205000000Y-147000000D03*
D17*
X207540000Y-147000000D03*
X210080000Y-147000000D03*
X212620000Y-147000000D03*
D16*
X230000000Y-147000000D03*
D17*
X232540000Y-147000000D03*
X235080000Y-147000000D03*
X237620000Y-147000000D03*
D22*
X273310000Y-145210000D03*
D23*
X273310000Y-142670000D03*
D24*
X281250000Y-146250000D03*
X283250000Y-146250000D03*
D25*
X279510000Y-142210000D03*
X279510000Y-144210000D03*
D24*
X276010000Y-146110000D03*
X278010000Y-146110000D03*
D26*
X270000000Y-144000000D03*
M02*
