G04 #@! TF.FileFunction,Copper,L2,Bot,Mixed*
%FSLAX46Y46*%
G04 Gerber Fmt 4.6, Leading zero omitted, Abs format (unit mm)*
G04 Created by KiCad (PCBNEW 4.0.4-stable) date 02/07/17 14:32:54*
%MOMM*%
%LPD*%
G01*
G04 APERTURE LIST*
%ADD10C,0.100000*%
%ADD11R,1.727200X2.032000*%
%ADD12O,1.727200X2.032000*%
%ADD13R,2.032000X1.727200*%
%ADD14O,2.032000X1.727200*%
%ADD15R,2.032000X2.032000*%
%ADD16O,2.032000X2.032000*%
%ADD17O,3.000000X9.000000*%
%ADD18C,0.500000*%
%ADD19C,0.500000*%
%ADD20C,1.000000*%
%ADD21C,2.000000*%
%ADD22C,0.200000*%
G04 APERTURE END LIST*
D10*
D11*
X255000000Y-147000000D03*
D12*
X257540000Y-147000000D03*
X260080000Y-147000000D03*
X262620000Y-147000000D03*
D11*
X49750000Y-140750000D03*
D12*
X47210000Y-140750000D03*
X44670000Y-140750000D03*
X42130000Y-140750000D03*
D13*
X286740000Y-141660000D03*
D14*
X286740000Y-144200000D03*
X286740000Y-146740000D03*
D11*
X55000000Y-141000000D03*
D12*
X57540000Y-141000000D03*
X60080000Y-141000000D03*
X62620000Y-141000000D03*
D11*
X255000000Y-141000000D03*
D12*
X257540000Y-141000000D03*
X260080000Y-141000000D03*
X262620000Y-141000000D03*
D11*
X130000000Y-141000000D03*
D12*
X132540000Y-141000000D03*
X135080000Y-141000000D03*
X137620000Y-141000000D03*
D11*
X230000000Y-141000000D03*
D12*
X232540000Y-141000000D03*
X235080000Y-141000000D03*
X237620000Y-141000000D03*
D11*
X105000000Y-141000000D03*
D12*
X107540000Y-141000000D03*
X110080000Y-141000000D03*
X112620000Y-141000000D03*
D11*
X180000000Y-141000000D03*
D12*
X182540000Y-141000000D03*
X185080000Y-141000000D03*
X187620000Y-141000000D03*
D11*
X155000000Y-141000000D03*
D12*
X157540000Y-141000000D03*
X160080000Y-141000000D03*
X162620000Y-141000000D03*
D11*
X205000000Y-141000000D03*
D12*
X207540000Y-141000000D03*
X210080000Y-141000000D03*
X212620000Y-141000000D03*
D11*
X80000000Y-141000000D03*
D12*
X82540000Y-141000000D03*
X85080000Y-141000000D03*
X87620000Y-141000000D03*
D11*
X30000000Y-141000000D03*
D12*
X32540000Y-141000000D03*
X35080000Y-141000000D03*
X37620000Y-141000000D03*
D11*
X30000000Y-147000000D03*
D12*
X32540000Y-147000000D03*
X35080000Y-147000000D03*
X37620000Y-147000000D03*
D11*
X55000000Y-147000000D03*
D12*
X57540000Y-147000000D03*
X60080000Y-147000000D03*
X62620000Y-147000000D03*
D11*
X80000000Y-147000000D03*
D12*
X82540000Y-147000000D03*
X85080000Y-147000000D03*
X87620000Y-147000000D03*
D11*
X105000000Y-147000000D03*
D12*
X107540000Y-147000000D03*
X110080000Y-147000000D03*
X112620000Y-147000000D03*
D11*
X130000000Y-147000000D03*
D12*
X132540000Y-147000000D03*
X135080000Y-147000000D03*
X137620000Y-147000000D03*
D11*
X155000000Y-147000000D03*
D12*
X157540000Y-147000000D03*
X160080000Y-147000000D03*
X162620000Y-147000000D03*
D11*
X180000000Y-147000000D03*
D12*
X182540000Y-147000000D03*
X185080000Y-147000000D03*
X187620000Y-147000000D03*
D11*
X205000000Y-147000000D03*
D12*
X207540000Y-147000000D03*
X210080000Y-147000000D03*
X212620000Y-147000000D03*
D11*
X230000000Y-147000000D03*
D12*
X232540000Y-147000000D03*
X235080000Y-147000000D03*
X237620000Y-147000000D03*
D15*
X273310000Y-145210000D03*
D16*
X273310000Y-142670000D03*
D17*
X270000000Y-144000000D03*
D18*
X284770000Y-142600000D03*
D19*
X285370000Y-146740000D02*
X286740000Y-146740000D01*
X284740000Y-146110000D02*
X285370000Y-146740000D01*
X284740000Y-142630000D02*
X284740000Y-146110000D01*
X284770000Y-142600000D02*
X284740000Y-142630000D01*
X212620000Y-141000000D02*
X212620000Y-142750000D01*
X212750000Y-142500000D02*
X212750000Y-142750000D01*
X212750000Y-142620000D02*
X212750000Y-142500000D01*
X212620000Y-142750000D02*
X212750000Y-142620000D01*
X187620000Y-141000000D02*
X187620000Y-142750000D01*
X187620000Y-142750000D02*
X187500000Y-142750000D01*
X162620000Y-141000000D02*
X162620000Y-142750000D01*
X162620000Y-142750000D02*
X163000000Y-142750000D01*
X137620000Y-141000000D02*
X137620000Y-142750000D01*
X137500000Y-142500000D02*
X137500000Y-142750000D01*
X137500000Y-142630000D02*
X137500000Y-142500000D01*
X137620000Y-142750000D02*
X137500000Y-142630000D01*
X112620000Y-141000000D02*
X112620000Y-142750000D01*
X113000000Y-142500000D02*
X113000000Y-142750000D01*
X112870000Y-142500000D02*
X113000000Y-142500000D01*
X112620000Y-142750000D02*
X112870000Y-142500000D01*
X87620000Y-141000000D02*
X87620000Y-142750000D01*
X87500000Y-142500000D02*
X87500000Y-142750000D01*
X87500000Y-142630000D02*
X87500000Y-142500000D01*
X87620000Y-142750000D02*
X87500000Y-142630000D01*
X62620000Y-141000000D02*
X62620000Y-142750000D01*
X63000000Y-142500000D02*
X63000000Y-142750000D01*
X62870000Y-142500000D02*
X63000000Y-142500000D01*
X62620000Y-142750000D02*
X62870000Y-142500000D01*
X42130000Y-140750000D02*
X42130000Y-142750000D01*
X42130000Y-142750000D02*
X42250000Y-142750000D01*
X237620000Y-141000000D02*
X237620000Y-142750000D01*
X237620000Y-142750000D02*
X237500000Y-142750000D01*
X37620000Y-141000000D02*
X37620000Y-142370000D01*
X261750000Y-142750000D02*
X262620000Y-141880000D01*
D20*
X38000000Y-142750000D02*
X42250000Y-142750000D01*
X42250000Y-142750000D02*
X63000000Y-142750000D01*
X63000000Y-142750000D02*
X87500000Y-142750000D01*
X87500000Y-142750000D02*
X113000000Y-142750000D01*
X113000000Y-142750000D02*
X137500000Y-142750000D01*
X137500000Y-142750000D02*
X163000000Y-142750000D01*
X163000000Y-142750000D02*
X187500000Y-142750000D01*
X187500000Y-142750000D02*
X212750000Y-142750000D01*
X212750000Y-142750000D02*
X237500000Y-142750000D01*
X237500000Y-142750000D02*
X261750000Y-142750000D01*
D19*
X37620000Y-142370000D02*
X38000000Y-142750000D01*
X262620000Y-141880000D02*
X262620000Y-141000000D01*
X44670000Y-140750000D02*
X44670000Y-139000000D01*
X44670000Y-139000000D02*
X44750000Y-139000000D01*
X60080000Y-141000000D02*
X60080000Y-139000000D01*
X60000000Y-139250000D02*
X60000000Y-139000000D01*
X60000000Y-139080000D02*
X60000000Y-139250000D01*
X60080000Y-139000000D02*
X60000000Y-139080000D01*
X85080000Y-141000000D02*
X85080000Y-139000000D01*
X85080000Y-139000000D02*
X85000000Y-139000000D01*
X110080000Y-141000000D02*
X110080000Y-139000000D01*
X110250000Y-139250000D02*
X110250000Y-139000000D01*
X110250000Y-139170000D02*
X110250000Y-139250000D01*
X110080000Y-139000000D02*
X110250000Y-139170000D01*
X135080000Y-141000000D02*
X135080000Y-139000000D01*
X135250000Y-139250000D02*
X135250000Y-139000000D01*
X135250000Y-139170000D02*
X135250000Y-139250000D01*
X135080000Y-139000000D02*
X135250000Y-139170000D01*
X160080000Y-141000000D02*
X160080000Y-139000000D01*
X160080000Y-139000000D02*
X160000000Y-139000000D01*
X185080000Y-141000000D02*
X185080000Y-139000000D01*
X185250000Y-139250000D02*
X185250000Y-139000000D01*
X185250000Y-139170000D02*
X185250000Y-139250000D01*
X185080000Y-139000000D02*
X185250000Y-139170000D01*
X210080000Y-141000000D02*
X210080000Y-139000000D01*
X210000000Y-139250000D02*
X210000000Y-139000000D01*
X210000000Y-139080000D02*
X210000000Y-139250000D01*
X210080000Y-139000000D02*
X210000000Y-139080000D01*
X235080000Y-141000000D02*
X235080000Y-139000000D01*
X235080000Y-139000000D02*
X235000000Y-139000000D01*
X35080000Y-141000000D02*
X35080000Y-139670000D01*
X259000000Y-139000000D02*
X260080000Y-140080000D01*
D20*
X35750000Y-139000000D02*
X44750000Y-139000000D01*
X44750000Y-139000000D02*
X60000000Y-139000000D01*
X60000000Y-139000000D02*
X85000000Y-139000000D01*
X85000000Y-139000000D02*
X110250000Y-139000000D01*
X110250000Y-139000000D02*
X135250000Y-139000000D01*
X135250000Y-139000000D02*
X160000000Y-139000000D01*
X160000000Y-139000000D02*
X185250000Y-139000000D01*
X185250000Y-139000000D02*
X210000000Y-139000000D01*
X210000000Y-139000000D02*
X235000000Y-139000000D01*
X235000000Y-139000000D02*
X259000000Y-139000000D01*
D19*
X35080000Y-139670000D02*
X35750000Y-139000000D01*
X260080000Y-140080000D02*
X260080000Y-141000000D01*
X55000000Y-147000000D02*
X55000000Y-144500000D01*
X80000000Y-147000000D02*
X80000000Y-144500000D01*
X105000000Y-147000000D02*
X105000000Y-144500000D01*
X105000000Y-144500000D02*
X105000000Y-145000000D01*
X105000000Y-145000000D02*
X105000000Y-144500000D01*
X130000000Y-147000000D02*
X130000000Y-144500000D01*
X130000000Y-144500000D02*
X130500000Y-144500000D01*
X180000000Y-147000000D02*
X180000000Y-144500000D01*
X155000000Y-147000000D02*
X155000000Y-144500000D01*
X155000000Y-144500000D02*
X154500000Y-144500000D01*
X205000000Y-147000000D02*
X205000000Y-144500000D01*
X205000000Y-144500000D02*
X205000000Y-145000000D01*
X205000000Y-145000000D02*
X205000000Y-144500000D01*
X230000000Y-147000000D02*
X230000000Y-144500000D01*
X30000000Y-147000000D02*
X30000000Y-145000000D01*
X255000000Y-145500000D02*
X255000000Y-147000000D01*
X254000000Y-144500000D02*
X255000000Y-145500000D01*
D21*
X30500000Y-144500000D02*
X55000000Y-144500000D01*
X55000000Y-144500000D02*
X80000000Y-144500000D01*
X80000000Y-144500000D02*
X105000000Y-144500000D01*
X105000000Y-144500000D02*
X130500000Y-144500000D01*
X130500000Y-144500000D02*
X154500000Y-144500000D01*
X154500000Y-144500000D02*
X180000000Y-144500000D01*
X180000000Y-144500000D02*
X205000000Y-144500000D01*
X205000000Y-144500000D02*
X230000000Y-144500000D01*
X230000000Y-144500000D02*
X254000000Y-144500000D01*
D19*
X30000000Y-145000000D02*
X30500000Y-144500000D01*
X132540000Y-147000000D02*
X132540000Y-149000000D01*
X132540000Y-149000000D02*
X132750000Y-149000000D01*
X107540000Y-147000000D02*
X107540000Y-149000000D01*
X107500000Y-148750000D02*
X107500000Y-149000000D01*
X107500000Y-148960000D02*
X107500000Y-148750000D01*
X107540000Y-149000000D02*
X107500000Y-148960000D01*
X82540000Y-147000000D02*
X82540000Y-149000000D01*
X82540000Y-149000000D02*
X82500000Y-149000000D01*
X57540000Y-147000000D02*
X57540000Y-149000000D01*
X57750000Y-148750000D02*
X57750000Y-149000000D01*
X57750000Y-148790000D02*
X57750000Y-148750000D01*
X57540000Y-149000000D02*
X57750000Y-148790000D01*
X157540000Y-147000000D02*
X157540000Y-149000000D01*
X157540000Y-149000000D02*
X157500000Y-149000000D01*
X182540000Y-147000000D02*
X182540000Y-149000000D01*
X182500000Y-148500000D02*
X182500000Y-149000000D01*
X182500000Y-148960000D02*
X182500000Y-148500000D01*
X182540000Y-149000000D02*
X182500000Y-148960000D01*
X207540000Y-147000000D02*
X207540000Y-149000000D01*
X207540000Y-149000000D02*
X207500000Y-149000000D01*
X232540000Y-147000000D02*
X232540000Y-149000000D01*
X232540000Y-149000000D02*
X232500000Y-149000000D01*
X32540000Y-147000000D02*
X32540000Y-148540000D01*
X256500000Y-149000000D02*
X257540000Y-147960000D01*
D20*
X33000000Y-149000000D02*
X57750000Y-149000000D01*
X57750000Y-149000000D02*
X82500000Y-149000000D01*
X82500000Y-149000000D02*
X107500000Y-149000000D01*
X107500000Y-149000000D02*
X132750000Y-149000000D01*
X132750000Y-149000000D02*
X157500000Y-149000000D01*
X157500000Y-149000000D02*
X182500000Y-149000000D01*
X182500000Y-149000000D02*
X207500000Y-149000000D01*
X207500000Y-149000000D02*
X232500000Y-149000000D01*
X232500000Y-149000000D02*
X256500000Y-149000000D01*
D19*
X32540000Y-148540000D02*
X33000000Y-149000000D01*
X257540000Y-147960000D02*
X257540000Y-147000000D01*
D22*
G36*
X296450000Y-149450000D02*
X270550000Y-149450000D01*
X270550000Y-148988554D01*
X270765367Y-148945715D01*
X271414214Y-148512170D01*
X271847759Y-147863323D01*
X271949865Y-147350000D01*
X276500000Y-147350000D01*
X276536346Y-147343161D01*
X276569727Y-147321681D01*
X276592121Y-147288906D01*
X276600000Y-147250000D01*
X276600000Y-147080418D01*
X285422723Y-147080418D01*
X285604918Y-147451983D01*
X285952184Y-147773843D01*
X286396187Y-147938309D01*
X286586000Y-147865999D01*
X286586000Y-146894000D01*
X286894000Y-146894000D01*
X286894000Y-147865999D01*
X287083813Y-147938309D01*
X287527816Y-147773843D01*
X287875082Y-147451983D01*
X288057277Y-147080418D01*
X288007920Y-146894000D01*
X286894000Y-146894000D01*
X286586000Y-146894000D01*
X285472080Y-146894000D01*
X285422723Y-147080418D01*
X276600000Y-147080418D01*
X276600000Y-144200000D01*
X285194300Y-144200000D01*
X285298098Y-144721827D01*
X285593689Y-145164211D01*
X286036073Y-145459802D01*
X286557900Y-145563600D01*
X286585998Y-145563600D01*
X286585998Y-145614000D01*
X286396187Y-145541691D01*
X285952184Y-145706157D01*
X285604918Y-146028017D01*
X285422723Y-146399582D01*
X285472080Y-146586000D01*
X286586000Y-146586000D01*
X286586000Y-146566000D01*
X286894000Y-146566000D01*
X286894000Y-146586000D01*
X288007920Y-146586000D01*
X288057277Y-146399582D01*
X287875082Y-146028017D01*
X287527816Y-145706157D01*
X287083813Y-145541691D01*
X286894002Y-145614000D01*
X286894002Y-145563600D01*
X286922100Y-145563600D01*
X287443927Y-145459802D01*
X287886311Y-145164211D01*
X288181902Y-144721827D01*
X288285700Y-144200000D01*
X288181902Y-143678173D01*
X287886311Y-143235789D01*
X287583406Y-143033395D01*
X287756000Y-143033395D01*
X287941289Y-142998531D01*
X288111465Y-142889025D01*
X288225630Y-142721939D01*
X288265795Y-142523600D01*
X288265795Y-140796400D01*
X288230931Y-140611111D01*
X288121425Y-140440935D01*
X287954339Y-140326770D01*
X287756000Y-140286605D01*
X285724000Y-140286605D01*
X285538711Y-140321469D01*
X285368535Y-140430975D01*
X285254370Y-140598061D01*
X285214205Y-140796400D01*
X285214205Y-142523600D01*
X285249069Y-142708889D01*
X285358575Y-142879065D01*
X285525661Y-142993230D01*
X285724000Y-143033395D01*
X285896594Y-143033395D01*
X285593689Y-143235789D01*
X285298098Y-143678173D01*
X285194300Y-144200000D01*
X276600000Y-144200000D01*
X276600000Y-141000000D01*
X276593161Y-140963654D01*
X276571681Y-140930273D01*
X276538906Y-140907879D01*
X276500000Y-140900000D01*
X271999593Y-140900000D01*
X271847759Y-140136677D01*
X271414214Y-139487830D01*
X270765367Y-139054285D01*
X270550000Y-139011446D01*
X270550000Y-138550000D01*
X296450000Y-138550000D01*
X296450000Y-149450000D01*
X296450000Y-149450000D01*
G37*
X296450000Y-149450000D02*
X270550000Y-149450000D01*
X270550000Y-148988554D01*
X270765367Y-148945715D01*
X271414214Y-148512170D01*
X271847759Y-147863323D01*
X271949865Y-147350000D01*
X276500000Y-147350000D01*
X276536346Y-147343161D01*
X276569727Y-147321681D01*
X276592121Y-147288906D01*
X276600000Y-147250000D01*
X276600000Y-147080418D01*
X285422723Y-147080418D01*
X285604918Y-147451983D01*
X285952184Y-147773843D01*
X286396187Y-147938309D01*
X286586000Y-147865999D01*
X286586000Y-146894000D01*
X286894000Y-146894000D01*
X286894000Y-147865999D01*
X287083813Y-147938309D01*
X287527816Y-147773843D01*
X287875082Y-147451983D01*
X288057277Y-147080418D01*
X288007920Y-146894000D01*
X286894000Y-146894000D01*
X286586000Y-146894000D01*
X285472080Y-146894000D01*
X285422723Y-147080418D01*
X276600000Y-147080418D01*
X276600000Y-144200000D01*
X285194300Y-144200000D01*
X285298098Y-144721827D01*
X285593689Y-145164211D01*
X286036073Y-145459802D01*
X286557900Y-145563600D01*
X286585998Y-145563600D01*
X286585998Y-145614000D01*
X286396187Y-145541691D01*
X285952184Y-145706157D01*
X285604918Y-146028017D01*
X285422723Y-146399582D01*
X285472080Y-146586000D01*
X286586000Y-146586000D01*
X286586000Y-146566000D01*
X286894000Y-146566000D01*
X286894000Y-146586000D01*
X288007920Y-146586000D01*
X288057277Y-146399582D01*
X287875082Y-146028017D01*
X287527816Y-145706157D01*
X287083813Y-145541691D01*
X286894002Y-145614000D01*
X286894002Y-145563600D01*
X286922100Y-145563600D01*
X287443927Y-145459802D01*
X287886311Y-145164211D01*
X288181902Y-144721827D01*
X288285700Y-144200000D01*
X288181902Y-143678173D01*
X287886311Y-143235789D01*
X287583406Y-143033395D01*
X287756000Y-143033395D01*
X287941289Y-142998531D01*
X288111465Y-142889025D01*
X288225630Y-142721939D01*
X288265795Y-142523600D01*
X288265795Y-140796400D01*
X288230931Y-140611111D01*
X288121425Y-140440935D01*
X287954339Y-140326770D01*
X287756000Y-140286605D01*
X285724000Y-140286605D01*
X285538711Y-140321469D01*
X285368535Y-140430975D01*
X285254370Y-140598061D01*
X285214205Y-140796400D01*
X285214205Y-142523600D01*
X285249069Y-142708889D01*
X285358575Y-142879065D01*
X285525661Y-142993230D01*
X285724000Y-143033395D01*
X285896594Y-143033395D01*
X285593689Y-143235789D01*
X285298098Y-143678173D01*
X285194300Y-144200000D01*
X276600000Y-144200000D01*
X276600000Y-141000000D01*
X276593161Y-140963654D01*
X276571681Y-140930273D01*
X276538906Y-140907879D01*
X276500000Y-140900000D01*
X271999593Y-140900000D01*
X271847759Y-140136677D01*
X271414214Y-139487830D01*
X270765367Y-139054285D01*
X270550000Y-139011446D01*
X270550000Y-138550000D01*
X296450000Y-138550000D01*
X296450000Y-149450000D01*
M02*
