G04 #@! TF.FileFunction,Soldermask,Bot*
%FSLAX46Y46*%
G04 Gerber Fmt 4.6, Leading zero omitted, Abs format (unit mm)*
G04 Created by KiCad (PCBNEW 4.0.4-stable) date 02/07/17 14:32:54*
%MOMM*%
%LPD*%
G01*
G04 APERTURE LIST*
%ADD10C,0.100000*%
%ADD11R,1.727200X2.032000*%
%ADD12O,1.727200X2.032000*%
%ADD13C,3.000000*%
%ADD14R,2.032000X1.727200*%
%ADD15O,2.032000X1.727200*%
%ADD16R,2.032000X2.032000*%
%ADD17O,2.032000X2.032000*%
%ADD18O,3.000000X9.000000*%
G04 APERTURE END LIST*
D10*
D11*
X255000000Y-147000000D03*
D12*
X257540000Y-147000000D03*
X260080000Y-147000000D03*
X262620000Y-147000000D03*
D13*
X23000000Y-144000000D03*
X266500000Y-144000000D03*
D11*
X49750000Y-140750000D03*
D12*
X47210000Y-140750000D03*
X44670000Y-140750000D03*
X42130000Y-140750000D03*
D14*
X286740000Y-141660000D03*
D15*
X286740000Y-144200000D03*
X286740000Y-146740000D03*
D11*
X55000000Y-141000000D03*
D12*
X57540000Y-141000000D03*
X60080000Y-141000000D03*
X62620000Y-141000000D03*
D11*
X255000000Y-141000000D03*
D12*
X257540000Y-141000000D03*
X260080000Y-141000000D03*
X262620000Y-141000000D03*
D11*
X130000000Y-141000000D03*
D12*
X132540000Y-141000000D03*
X135080000Y-141000000D03*
X137620000Y-141000000D03*
D11*
X230000000Y-141000000D03*
D12*
X232540000Y-141000000D03*
X235080000Y-141000000D03*
X237620000Y-141000000D03*
D11*
X105000000Y-141000000D03*
D12*
X107540000Y-141000000D03*
X110080000Y-141000000D03*
X112620000Y-141000000D03*
D11*
X180000000Y-141000000D03*
D12*
X182540000Y-141000000D03*
X185080000Y-141000000D03*
X187620000Y-141000000D03*
D11*
X155000000Y-141000000D03*
D12*
X157540000Y-141000000D03*
X160080000Y-141000000D03*
X162620000Y-141000000D03*
D11*
X205000000Y-141000000D03*
D12*
X207540000Y-141000000D03*
X210080000Y-141000000D03*
X212620000Y-141000000D03*
D11*
X80000000Y-141000000D03*
D12*
X82540000Y-141000000D03*
X85080000Y-141000000D03*
X87620000Y-141000000D03*
D11*
X30000000Y-141000000D03*
D12*
X32540000Y-141000000D03*
X35080000Y-141000000D03*
X37620000Y-141000000D03*
D11*
X30000000Y-147000000D03*
D12*
X32540000Y-147000000D03*
X35080000Y-147000000D03*
X37620000Y-147000000D03*
D11*
X55000000Y-147000000D03*
D12*
X57540000Y-147000000D03*
X60080000Y-147000000D03*
X62620000Y-147000000D03*
D11*
X80000000Y-147000000D03*
D12*
X82540000Y-147000000D03*
X85080000Y-147000000D03*
X87620000Y-147000000D03*
D11*
X105000000Y-147000000D03*
D12*
X107540000Y-147000000D03*
X110080000Y-147000000D03*
X112620000Y-147000000D03*
D11*
X130000000Y-147000000D03*
D12*
X132540000Y-147000000D03*
X135080000Y-147000000D03*
X137620000Y-147000000D03*
D11*
X155000000Y-147000000D03*
D12*
X157540000Y-147000000D03*
X160080000Y-147000000D03*
X162620000Y-147000000D03*
D11*
X180000000Y-147000000D03*
D12*
X182540000Y-147000000D03*
X185080000Y-147000000D03*
X187620000Y-147000000D03*
D11*
X205000000Y-147000000D03*
D12*
X207540000Y-147000000D03*
X210080000Y-147000000D03*
X212620000Y-147000000D03*
D11*
X230000000Y-147000000D03*
D12*
X232540000Y-147000000D03*
X235080000Y-147000000D03*
X237620000Y-147000000D03*
D16*
X273310000Y-145210000D03*
D17*
X273310000Y-142670000D03*
D18*
X270000000Y-144000000D03*
M02*
