M48
;DRILL file {KiCad 4.0.4-stable} date 02/07/17 14:32:56
;FORMAT={-:-/ absolute / metric / decimal}
FMAT,2
METRIC,TZ
T1C0.300
T2C1.016
%
G90
G05
M71
T1
X284.77Y-142.6
T2
X30.Y-141.
X30.Y-147.
X32.54Y-141.
X32.54Y-147.
X35.08Y-141.
X35.08Y-147.
X37.62Y-141.
X37.62Y-147.
X42.13Y-140.75
X44.67Y-140.75
X47.21Y-140.75
X49.75Y-140.75
X55.Y-141.
X55.Y-147.
X57.54Y-141.
X57.54Y-147.
X60.08Y-141.
X60.08Y-147.
X62.62Y-141.
X62.62Y-147.
X80.Y-141.
X80.Y-147.
X82.54Y-141.
X82.54Y-147.
X85.08Y-141.
X85.08Y-147.
X87.62Y-141.
X87.62Y-147.
X105.Y-141.
X105.Y-147.
X107.54Y-141.
X107.54Y-147.
X110.08Y-141.
X110.08Y-147.
X112.62Y-141.
X112.62Y-147.
X130.Y-141.
X130.Y-147.
X132.54Y-141.
X132.54Y-147.
X135.08Y-141.
X135.08Y-147.
X137.62Y-141.
X137.62Y-147.
X155.Y-141.
X155.Y-147.
X157.54Y-141.
X157.54Y-147.
X160.08Y-141.
X160.08Y-147.
X162.62Y-141.
X162.62Y-147.
X180.Y-141.
X180.Y-147.
X182.54Y-141.
X182.54Y-147.
X185.08Y-141.
X185.08Y-147.
X187.62Y-141.
X187.62Y-147.
X205.Y-141.
X205.Y-147.
X207.54Y-141.
X207.54Y-147.
X210.08Y-141.
X210.08Y-147.
X212.62Y-141.
X212.62Y-147.
X230.Y-141.
X230.Y-147.
X232.54Y-141.
X232.54Y-147.
X235.08Y-141.
X235.08Y-147.
X237.62Y-141.
X237.62Y-147.
X255.Y-141.
X255.Y-147.
X257.54Y-141.
X257.54Y-147.
X260.08Y-141.
X260.08Y-147.
X262.62Y-141.
X262.62Y-147.
X273.31Y-142.67
X273.31Y-145.21
X286.74Y-141.66
X286.74Y-144.2
X286.74Y-146.74
T0
M30
